<?xml version="1.0" encoding="utf-8"?>
<svg viewBox="0 0 500 500" xmlns="http://www.w3.org/2000/svg">
  <rect x="75.22" y="93.931" width="227.283" height="283.808" style="fill: rgb(216, 216, 216); stroke-width: 11px; stroke: rgb(90, 90, 90);"/>
  <line style="stroke: rgb(86, 85, 85); stroke-width: 10px;" x1="75.22" y1="137.653" x2="302.716" y2="137.488"/>
  <line style="stroke: rgb(86, 85, 85); stroke-width: 10px;" x1="75.22" y1="217.52" x2="302.716" y2="217.355"/>
  <line style="stroke: rgb(86, 85, 85); stroke-width: 10px;" x1="75.006" y1="177.587" x2="302.502" y2="177.421"/>
  <line style="stroke: rgb(86, 85, 85); stroke-width: 10px;" x1="75.22" y1="257.453" x2="302.716" y2="257.288"/>
  <line style="stroke: rgb(86, 85, 85); stroke-width: 10px;" x1="75.22" y1="297.386" x2="302.716" y2="297.223"/>
  <line style="stroke: rgb(86, 85, 85); stroke-width: 10px;" x1="75.006" y1="337.32" x2="302.502" y2="337.156"/>
  <line style="stroke: rgb(86, 85, 85); stroke-width: 10px;" x1="127.822" y1="93.931" x2="128.041" y2="377.739"/>
  <line style="stroke: rgb(86, 85, 85); stroke-width: 10px;" x1="194.399" y1="93.931" x2="194.431" y2="377.739"/>
  <line style="stroke: rgb(86, 85, 85); stroke-width: 10px;" x1="249.081" y1="93.931" x2="249.703" y2="377.739"/>
  <rect x="302.502" y="93.931" width="107.455" height="283.808" style="fill: rgb(216, 216, 216); stroke-width: 11px; stroke: rgb(159, 157, 154);"/>
  <line style="stroke-width: 10px; stroke: rgb(159, 157, 154);" x1="336.854" y1="93.931" x2="337.073" y2="377.739"/>
  <line style="stroke-width: 10px; stroke: rgb(159, 157, 154);" x1="375.822" y1="93.931" x2="376.041" y2="377.739"/>
  <line style="stroke-width: 10px; stroke: rgb(159, 157, 154);" x1="302.716" y1="137.488" x2="409.957" y2="137.324"/>
  <line style="stroke-width: 10px; stroke: rgb(159, 157, 154);" x1="302.502" y1="177.421" x2="409.743" y2="177.258"/>
  <line style="stroke-width: 10px; stroke: rgb(159, 157, 154);" x1="302.716" y1="217.355" x2="409.957" y2="217.191"/>
  <line style="stroke-width: 10px; stroke: rgb(159, 157, 154);" x1="302.502" y1="257.288" x2="409.743" y2="257.124"/>
  <line style="stroke-width: 10px; stroke: rgb(159, 157, 154);" x1="302.502" y1="297.223" x2="409.743" y2="297.059"/>
  <line style="stroke-width: 10px; stroke: rgb(159, 157, 154);" x1="302.502" y1="337.156" x2="409.743" y2="336.992"/>
  <rect x="47.979" y="169.358" width="400" height="110.679" style="fill: rgb(216, 216, 216); stroke: rgb(245, 161, 40); stroke-width: 11px;"/>
  <path d="M 122.007 260.268 L 88.317 260.268 L 88.317 254.118 L 96.267 252.748 L 96.267 196.738 L 88.317 195.378 L 88.317 189.178 L 96.267 189.178 L 118.977 189.178 C 126.397 189.178 132.2 190.781 136.387 193.988 C 140.567 197.195 142.657 202.001 142.657 208.408 C 142.657 211.568 141.657 214.395 139.657 216.888 C 137.65 219.375 135.004 221.221 131.717 222.428 C 134.584 223.015 137.044 224.161 139.097 225.868 C 141.144 227.575 142.73 229.658 143.857 232.118 C 144.977 234.578 145.537 237.271 145.537 240.198 C 145.537 246.711 143.42 251.685 139.187 255.118 C 134.96 258.551 129.234 260.268 122.007 260.268 Z M 105.887 226.918 L 105.887 252.748 L 122.007 252.748 C 126.4 252.748 129.81 251.665 132.237 249.498 C 134.657 247.338 135.867 244.271 135.867 240.298 C 135.867 237.498 135.42 235.105 134.527 233.118 C 133.634 231.131 132.267 229.601 130.427 228.528 C 128.587 227.455 126.267 226.918 123.467 226.918 L 105.887 226.918 Z M 105.887 196.738 L 105.887 219.398 L 121.467 219.398 C 124.92 219.398 127.71 218.398 129.837 216.398 C 131.97 214.391 133.037 211.665 133.037 208.218 C 133.037 204.378 131.834 201.505 129.427 199.598 C 127.02 197.691 123.537 196.738 118.977 196.738 L 105.887 196.738 ZM 204.088 260.268 L 152.868 260.268 L 152.868 254.118 L 160.818 252.748 L 160.818 196.738 L 152.868 195.378 L 152.868 189.178 L 160.818 189.178 L 170.438 189.178 L 178.398 189.178 L 178.398 195.378 L 170.438 196.738 L 170.438 252.898 L 195.588 252.898 L 196.708 241.668 L 204.088 241.668 L 204.088 260.268 ZM 237.776 261.298 C 233.183 261.298 229.066 260.418 225.426 258.658 C 221.779 256.898 218.676 254.415 216.116 251.208 C 213.563 248.001 211.609 244.201 210.256 239.808 C 208.909 235.415 208.236 230.565 208.236 225.258 L 208.236 224.228 C 208.236 218.955 208.909 214.115 210.256 209.708 C 211.609 205.295 213.563 201.478 216.116 198.258 C 218.676 195.031 221.779 192.541 225.426 190.788 C 229.066 189.028 233.183 188.148 237.776 188.148 C 242.623 188.148 246.886 189.028 250.566 190.788 C 254.246 192.541 257.329 195.031 259.816 198.258 C 262.309 201.478 264.189 205.295 265.456 209.708 C 266.729 214.115 267.366 218.955 267.366 224.228 L 267.366 225.258 C 267.366 230.565 266.729 235.415 265.456 239.808 C 264.189 244.201 262.309 248.001 259.816 251.208 C 257.329 254.415 254.246 256.898 250.566 258.658 C 246.886 260.418 242.623 261.298 237.776 261.298 Z M 237.776 253.288 C 242.496 253.288 246.313 252.115 249.226 249.768 C 252.139 247.428 254.279 244.148 255.646 239.928 C 257.013 235.715 257.696 230.825 257.696 225.258 L 257.696 224.138 C 257.696 218.605 257.006 213.745 255.626 209.558 C 254.239 205.378 252.083 202.108 249.156 199.748 C 246.223 197.388 242.429 196.208 237.776 196.208 C 233.509 196.208 229.896 197.395 226.936 199.768 C 223.976 202.148 221.729 205.428 220.196 209.608 C 218.669 213.795 217.906 218.638 217.906 224.138 L 217.906 225.258 C 217.906 230.791 218.669 235.665 220.196 239.878 C 221.729 244.098 223.976 247.388 226.936 249.748 C 229.896 252.108 233.509 253.288 237.776 253.288 ZM 309.548 261.298 C 302.422 261.298 296.475 259.735 291.708 256.608 C 286.935 253.481 283.355 249.201 280.968 243.768 C 278.575 238.328 277.378 232.158 277.378 225.258 L 277.378 224.228 C 277.378 217.268 278.632 211.078 281.138 205.658 C 283.645 200.238 287.242 195.965 291.928 192.838 C 296.615 189.711 302.212 188.148 308.718 188.148 C 313.312 188.148 317.512 188.865 321.318 190.298 C 325.125 191.731 328.282 193.555 330.788 195.768 L 330.788 211.098 L 323.128 211.098 L 322.098 199.868 C 321.058 199.055 319.862 198.371 318.508 197.818 C 317.162 197.265 315.665 196.841 314.018 196.548 C 312.378 196.255 310.598 196.108 308.678 196.108 C 304.018 196.108 300.078 197.305 296.858 199.698 C 293.632 202.091 291.188 205.388 289.528 209.588 C 287.868 213.788 287.038 218.638 287.038 224.138 L 287.038 225.258 C 287.038 231.218 287.928 236.305 289.708 240.518 C 291.482 244.731 294.068 247.945 297.468 250.158 C 300.868 252.371 305.012 253.478 309.898 253.478 C 312.172 253.478 314.402 253.201 316.588 252.648 C 318.768 252.095 320.575 251.378 322.008 250.498 L 323.078 240.588 L 330.598 240.588 L 330.598 256.018 C 327.932 257.678 324.742 258.971 321.028 259.898 C 317.315 260.831 313.488 261.298 309.548 261.298 ZM 396.907 196.598 L 357.307 239.708 L 352.177 233.758 L 385.917 196.308 L 386.117 196.058 L 380.797 195.378 L 380.797 189.178 L 403.597 189.178 L 403.597 195.378 L 396.907 196.598 Z M 365.947 260.268 L 340.417 260.268 L 340.417 254.118 L 348.367 252.748 L 348.367 196.738 L 340.417 195.378 L 340.417 189.178 L 365.947 189.178 L 365.947 195.378 L 357.987 196.738 L 357.987 252.748 L 365.947 254.118 L 365.947 260.268 Z M 406.137 260.268 L 382.407 260.268 L 382.407 254.118 L 388.267 253.428 L 388.217 253.388 L 368.537 226.088 L 373.907 218.518 L 399.587 252.898 L 406.137 254.118 L 406.137 260.268 Z" transform="matrix(1, 0, 0, 1, 0, 0)" style="fill: rgb(51, 51, 51); white-space: pre;"/>
</svg>