<?xml version="1.0" encoding="utf-8"?>
<svg viewBox="0 0 500 500" xmlns="http://www.w3.org/2000/svg">
  <rect x="75.22" y="93.931" width="227.283" height="283.808" style="fill: rgb(216, 216, 216); stroke-width: 11px; stroke: rgb(90, 90, 90);"/>
  <line style="stroke: rgb(86, 85, 85); stroke-width: 10px;" x1="75.22" y1="137.653" x2="302.716" y2="137.488"/>
  <line style="stroke: rgb(86, 85, 85); stroke-width: 10px;" x1="75.22" y1="217.52" x2="302.716" y2="217.355"/>
  <line style="stroke: rgb(86, 85, 85); stroke-width: 10px;" x1="75.006" y1="177.587" x2="302.502" y2="177.421"/>
  <line style="stroke: rgb(86, 85, 85); stroke-width: 10px;" x1="75.22" y1="257.453" x2="302.716" y2="257.288"/>
  <line style="stroke: rgb(86, 85, 85); stroke-width: 10px;" x1="75.22" y1="297.386" x2="302.716" y2="297.223"/>
  <line style="stroke: rgb(86, 85, 85); stroke-width: 10px;" x1="75.006" y1="337.32" x2="302.502" y2="337.156"/>
  <line style="stroke: rgb(86, 85, 85); stroke-width: 10px;" x1="127.822" y1="93.931" x2="128.041" y2="377.739"/>
  <line style="stroke: rgb(86, 85, 85); stroke-width: 10px;" x1="194.399" y1="93.931" x2="194.431" y2="377.739"/>
  <line style="stroke: rgb(86, 85, 85); stroke-width: 10px;" x1="249.081" y1="93.931" x2="249.703" y2="377.739"/>
  <rect x="302.502" y="93.931" width="107.455" height="283.808" style="fill: rgb(216, 216, 216); stroke-width: 11px; stroke: rgb(159, 157, 154);"/>
  <line style="stroke-width: 10px; stroke: rgb(159, 157, 154);" x1="336.854" y1="93.931" x2="337.073" y2="377.739"/>
  <line style="stroke-width: 10px; stroke: rgb(159, 157, 154);" x1="375.822" y1="93.931" x2="376.041" y2="377.739"/>
  <line style="stroke-width: 10px; stroke: rgb(159, 157, 154);" x1="302.716" y1="137.488" x2="409.957" y2="137.324"/>
  <line style="stroke-width: 10px; stroke: rgb(159, 157, 154);" x1="302.502" y1="177.421" x2="409.743" y2="177.258"/>
  <line style="stroke-width: 10px; stroke: rgb(159, 157, 154);" x1="302.716" y1="217.355" x2="409.957" y2="217.191"/>
  <line style="stroke-width: 10px; stroke: rgb(159, 157, 154);" x1="302.502" y1="257.288" x2="409.743" y2="257.124"/>
  <line style="stroke-width: 10px; stroke: rgb(159, 157, 154);" x1="302.502" y1="297.223" x2="409.743" y2="297.059"/>
  <line style="stroke-width: 10px; stroke: rgb(159, 157, 154);" x1="302.502" y1="337.156" x2="409.743" y2="336.992"/>
  <rect x="47.787" y="169.395" width="400" height="110.679" style="fill: rgb(216, 216, 216); stroke: rgb(245, 161, 40); stroke-width: 11px;"/>
  <path d="M 90.436 247.199 C 85.729 247.199 81.803 246.166 78.656 244.099 C 75.509 242.039 73.146 239.216 71.566 235.629 C 69.986 232.042 69.196 227.969 69.196 223.409 L 69.196 222.739 C 69.196 218.139 70.023 214.049 71.676 210.469 C 73.329 206.896 75.703 204.079 78.796 202.019 C 81.889 199.952 85.586 198.919 89.886 198.919 C 92.913 198.919 95.683 199.392 98.196 200.339 C 100.709 201.286 102.793 202.489 104.446 203.949 L 104.446 214.069 L 99.386 214.069 L 98.716 206.659 C 98.029 206.119 97.239 205.666 96.346 205.299 C 95.453 204.932 94.463 204.652 93.376 204.459 C 92.296 204.266 91.123 204.169 89.856 204.169 C 86.783 204.169 84.183 204.959 82.056 206.539 C 79.929 208.119 78.316 210.296 77.216 213.069 C 76.123 215.842 75.576 219.042 75.576 222.669 L 75.576 223.409 C 75.576 227.342 76.163 230.699 77.336 233.479 C 78.503 236.266 80.209 238.389 82.456 239.849 C 84.703 241.309 87.436 242.039 90.656 242.039 C 92.163 242.039 93.636 241.856 95.076 241.489 C 96.516 241.122 97.706 240.649 98.646 240.069 L 99.356 233.529 L 104.326 233.529 L 104.326 243.719 C 102.559 244.812 100.453 245.666 98.006 246.279 C 95.553 246.892 93.029 247.199 90.436 247.199 ZM 129.938 247.199 C 126.912 247.199 124.195 246.619 121.788 245.459 C 119.382 244.299 117.335 242.659 115.648 240.539 C 113.962 238.426 112.672 235.919 111.778 233.019 C 110.892 230.119 110.448 226.916 110.448 223.409 L 110.448 222.739 C 110.448 219.259 110.892 216.062 111.778 213.149 C 112.672 210.236 113.962 207.716 115.648 205.589 C 117.335 203.462 119.382 201.819 121.788 200.659 C 124.195 199.499 126.912 198.919 129.938 198.919 C 133.138 198.919 135.955 199.499 138.388 200.659 C 140.815 201.819 142.848 203.462 144.488 205.589 C 146.135 207.716 147.378 210.236 148.218 213.149 C 149.052 216.062 149.468 219.259 149.468 222.739 L 149.468 223.409 C 149.468 226.916 149.052 230.119 148.218 233.019 C 147.378 235.919 146.135 238.426 144.488 240.539 C 142.848 242.659 140.815 244.299 138.388 245.459 C 135.955 246.619 133.138 247.199 129.938 247.199 Z M 129.938 241.909 C 133.058 241.909 135.578 241.136 137.498 239.589 C 139.418 238.042 140.832 235.879 141.738 233.099 C 142.638 230.312 143.088 227.082 143.088 223.409 L 143.088 222.669 C 143.088 219.016 142.632 215.809 141.718 213.049 C 140.805 210.289 139.382 208.132 137.448 206.579 C 135.515 205.019 133.012 204.239 129.938 204.239 C 127.125 204.239 124.742 205.022 122.788 206.589 C 120.835 208.156 119.352 210.319 118.338 213.079 C 117.332 215.846 116.828 219.042 116.828 222.669 L 116.828 223.409 C 116.828 227.062 117.332 230.282 118.338 233.069 C 119.352 235.849 120.835 238.019 122.788 239.579 C 124.742 241.132 127.125 241.909 129.938 241.909 ZM 171.606 246.519 L 154.756 246.519 L 154.756 242.459 L 160.006 241.559 L 160.006 204.589 L 154.756 203.689 L 154.756 199.599 L 160.006 199.599 L 168.486 199.599 L 183.596 235.209 L 183.796 235.209 L 198.426 199.599 L 212.566 199.599 L 212.566 203.689 L 207.316 204.589 L 207.316 241.559 L 212.566 242.459 L 212.566 246.519 L 195.716 246.519 L 195.716 242.459 L 201.256 241.559 L 201.256 227.959 L 201.256 208.269 L 201.096 208.229 L 185.856 244.839 L 181.636 244.839 L 165.876 208.299 L 165.716 208.329 L 165.936 227.959 L 165.936 241.559 L 171.606 242.459 L 171.606 246.519 ZM 235.059 246.519 L 218.209 246.519 L 218.209 242.459 L 223.459 241.559 L 223.459 204.589 L 218.209 203.689 L 218.209 199.599 L 223.459 199.599 L 239.769 199.599 C 243.123 199.599 245.979 200.182 248.339 201.349 C 250.706 202.522 252.513 204.162 253.759 206.269 C 255.006 208.376 255.629 210.836 255.629 213.649 C 255.629 216.482 255.006 218.952 253.759 221.059 C 252.513 223.166 250.706 224.799 248.339 225.959 C 245.979 227.119 243.123 227.699 239.769 227.699 L 229.809 227.699 L 229.809 241.559 L 235.059 242.459 L 235.059 246.519 Z M 229.809 204.589 L 229.809 222.739 L 239.769 222.739 C 242.949 222.739 245.329 221.882 246.909 220.169 C 248.489 218.462 249.279 216.309 249.279 213.709 C 249.279 211.109 248.489 208.939 246.909 207.199 C 245.329 205.459 242.949 204.589 239.769 204.589 L 229.809 204.589 ZM 293.817 246.519 L 260.007 246.519 L 260.007 242.459 L 265.257 241.559 L 265.257 204.589 L 260.007 203.689 L 260.007 199.599 L 265.257 199.599 L 271.607 199.599 L 276.857 199.599 L 276.857 203.689 L 271.607 204.589 L 271.607 241.649 L 288.207 241.649 L 288.947 234.239 L 293.817 234.239 L 293.817 246.519 ZM 334.741 246.519 L 299.001 246.519 L 299.001 242.459 L 304.251 241.559 L 304.251 204.589 L 299.001 203.689 L 299.001 199.599 L 333.741 199.599 L 333.741 210.879 L 328.651 210.879 L 327.941 204.499 L 310.601 204.499 L 310.601 219.769 L 327.911 219.769 L 327.911 224.769 L 310.601 224.769 L 310.601 241.749 L 328.971 241.749 L 329.681 235.269 L 334.741 235.269 L 334.741 246.519 ZM 370.154 246.519 L 353.304 246.519 L 353.304 242.459 L 358.554 241.559 L 358.554 204.399 L 347.924 204.399 L 346.984 210.909 L 342.214 210.909 L 342.214 199.599 L 381.214 199.599 L 381.214 210.909 L 376.504 210.909 L 375.544 204.399 L 364.904 204.399 L 364.904 241.559 L 370.154 242.459 L 370.154 246.519 ZM 422.784 246.519 L 387.044 246.519 L 387.044 242.459 L 392.294 241.559 L 392.294 204.589 L 387.044 203.689 L 387.044 199.599 L 421.784 199.599 L 421.784 210.879 L 416.694 210.879 L 415.984 204.499 L 398.644 204.499 L 398.644 219.769 L 415.954 219.769 L 415.954 224.769 L 398.644 224.769 L 398.644 241.749 L 417.014 241.749 L 417.724 235.269 L 422.784 235.269 L 422.784 246.519 Z" transform="matrix(1, 0, 0, 1, 0, 0)" style="fill: rgb(51, 51, 51); white-space: pre;"/>
</svg>