<?xml version="1.0" encoding="utf-8"?>
<svg viewBox="0 0 500 500" xmlns="http://www.w3.org/2000/svg">
  <path d="M 73.224 197.87 L 69.744 189.78 C 73.944 188.34 77.061 186.477 79.094 184.19 C 81.134 181.903 82.091 179.32 81.964 176.44 C 81.711 176.5 81.364 176.53 80.924 176.53 C 79.611 176.53 78.344 176.327 77.124 175.92 C 75.897 175.513 74.814 174.903 73.874 174.09 C 72.934 173.27 72.184 172.267 71.624 171.08 C 71.057 169.887 70.774 168.507 70.774 166.94 C 70.774 163.993 71.794 161.643 73.834 159.89 C 75.867 158.137 78.357 157.26 81.304 157.26 C 85.191 157.26 88.104 158.687 90.044 161.54 C 91.991 164.387 92.964 168.35 92.964 173.43 C 92.964 179.443 91.301 184.52 87.974 188.66 C 84.654 192.793 79.737 195.863 73.224 197.87 ZM 142.491 178.6 C 138.671 178.6 135.055 177.927 131.641 176.58 C 128.221 175.233 125.211 173.243 122.611 170.61 C 120.011 167.977 117.945 164.703 116.411 160.79 C 114.878 156.87 114.111 152.34 114.111 147.2 C 114.111 142.127 114.861 137.6 116.361 133.62 C 117.868 129.64 119.938 126.27 122.571 123.51 C 125.198 120.757 128.298 118.66 131.871 117.22 C 135.445 115.773 139.268 115.05 143.341 115.05 C 147.228 115.05 150.738 115.85 153.871 117.45 C 157.005 119.05 159.605 120.853 161.671 122.86 L 154.061 131.41 C 152.615 130.097 151.031 129.03 149.311 128.21 C 147.585 127.397 145.595 126.99 143.341 126.99 C 141.148 126.99 139.141 127.443 137.321 128.35 C 135.508 129.263 133.928 130.567 132.581 132.26 C 131.235 133.947 130.185 136.013 129.431 138.46 C 128.678 140.907 128.301 143.663 128.301 146.73 C 128.301 153.063 129.741 157.967 132.621 161.44 C 135.508 164.92 139.268 166.66 143.901 166.66 C 146.095 166.66 148.118 166.16 149.971 165.16 C 151.818 164.153 153.495 162.837 155.001 161.21 L 162.611 169.57 C 157.538 175.59 150.831 178.6 142.491 178.6 ZM 193.438 178.6 C 189.305 178.6 185.215 177.863 181.168 176.39 C 177.128 174.917 173.448 172.707 170.128 169.76 L 178.118 160.27 C 180.438 162.15 182.975 163.683 185.728 164.87 C 188.488 166.063 191.372 166.66 194.378 166.66 C 197.385 166.66 199.578 166.16 200.958 165.16 C 202.338 164.153 203.028 162.867 203.028 161.3 C 203.028 160.233 202.808 159.34 202.368 158.62 C 201.928 157.9 201.302 157.26 200.488 156.7 C 199.675 156.133 198.672 155.6 197.478 155.1 C 196.292 154.6 194.978 154.037 193.538 153.41 L 185.638 150.02 C 183.945 149.393 182.302 148.58 180.708 147.58 C 179.108 146.573 177.712 145.397 176.518 144.05 C 175.332 142.703 174.375 141.137 173.648 139.35 C 172.928 137.563 172.568 135.543 172.568 133.29 C 172.568 130.783 173.118 128.417 174.218 126.19 C 175.312 123.97 176.845 122.03 178.818 120.37 C 180.798 118.703 183.165 117.4 185.918 116.46 C 188.678 115.52 191.718 115.05 195.038 115.05 C 198.798 115.05 202.432 115.74 205.938 117.12 C 209.452 118.5 212.618 120.507 215.438 123.14 L 208.388 131.88 C 206.255 130.313 204.125 129.107 201.998 128.26 C 199.865 127.413 197.295 126.99 194.288 126.99 C 191.968 126.99 190.105 127.46 188.698 128.4 C 187.285 129.34 186.578 130.72 186.578 132.54 C 186.578 134.353 187.502 135.747 189.348 136.72 C 191.202 137.693 193.632 138.713 196.638 139.78 L 204.058 142.97 C 208.132 144.477 211.345 146.547 213.698 149.18 C 216.045 151.807 217.218 155.283 217.218 159.61 C 217.218 162.177 216.688 164.607 215.628 166.9 C 214.562 169.187 213.025 171.19 211.018 172.91 C 209.012 174.637 206.535 176.017 203.588 177.05 C 200.648 178.083 197.265 178.6 193.438 178.6 ZM 258.396 177.47 L 241.756 177.47 L 223.236 116.18 L 237.896 116.18 L 245.236 144.76 C 246.176 148.14 247.006 151.413 247.726 154.58 C 248.446 157.747 249.242 161.02 250.116 164.4 L 250.496 164.4 C 251.436 161.02 252.282 157.747 253.036 154.58 C 253.789 151.413 254.602 148.14 255.476 144.76 L 262.716 116.18 L 276.816 116.18 L 258.396 177.47 ZM 298.813 197.87 L 295.333 189.78 C 299.533 188.34 302.65 186.477 304.683 184.19 C 306.723 181.903 307.68 179.32 307.553 176.44 C 307.3 176.5 306.953 176.53 306.513 176.53 C 305.2 176.53 303.933 176.327 302.713 175.92 C 301.486 175.513 300.403 174.903 299.463 174.09 C 298.523 173.27 297.773 172.267 297.213 171.08 C 296.646 169.887 296.363 168.507 296.363 166.94 C 296.363 163.993 297.383 161.643 299.423 159.89 C 301.456 158.137 303.946 157.26 306.893 157.26 C 310.78 157.26 313.693 158.687 315.633 161.54 C 317.58 164.387 318.553 168.35 318.553 173.43 C 318.553 179.443 316.89 184.52 313.563 188.66 C 310.243 192.793 305.326 195.863 298.813 197.87 Z" transform="matrix(1.4765729904174805, 0, 0, 1.3578910827636719, -35.88990783691406, -109.21183776855469)" style="fill: rgb(245, 161, 40); white-space: pre;"/>
  <path d="M 57.446 1008.88 H 424.63 L 424.63 958.923 L 507.127 1025.412 L 424.63 1091.901 L 424.63 1041.945 H 57.446 V 1008.88 Z" style="fill: rgb(155, 154, 154);" transform="matrix(0.999994, 0.00343, -0.004056, 0.999992, -28.125744, -796.253662)"/>
  <path d="M 123.482 421.573 L 101.102 421.573 L 101.102 314.073 L 123.482 314.073 L 123.482 319.943 L 108.852 319.943 L 108.852 415.703 L 123.482 415.703 L 123.482 421.573 ZM 171.755 421.573 L 149.375 421.573 L 149.375 314.073 L 171.755 314.073 L 171.755 319.943 L 157.125 319.943 L 157.125 415.703 L 171.755 415.703 L 171.755 421.573 ZM 201.528 404.073 C 199.441 404.073 197.668 403.343 196.208 401.883 C 194.755 400.423 194.028 398.57 194.028 396.323 C 194.028 393.903 194.755 391.966 196.208 390.513 C 197.668 389.053 199.441 388.323 201.528 388.323 C 203.528 388.323 205.255 389.053 206.708 390.513 C 208.168 391.966 208.898 393.903 208.898 396.323 C 208.898 398.57 208.168 400.423 206.708 401.883 C 205.255 403.343 203.528 404.073 201.528 404.073 ZM 243.051 404.073 C 240.965 404.073 239.191 403.343 237.731 401.883 C 236.278 400.423 235.551 398.57 235.551 396.323 C 235.551 393.903 236.278 391.966 237.731 390.513 C 239.191 389.053 240.965 388.323 243.051 388.323 C 245.051 388.323 246.778 389.053 248.231 390.513 C 249.691 391.966 250.421 393.903 250.421 396.323 C 250.421 398.57 249.691 400.423 248.231 401.883 C 246.778 403.343 245.051 404.073 243.051 404.073 ZM 295.075 421.573 L 272.825 421.573 L 272.825 415.703 L 287.325 415.703 L 287.325 319.943 L 272.825 319.943 L 272.825 314.073 L 295.075 314.073 L 295.075 421.573 ZM 343.348 421.573 L 321.098 421.573 L 321.098 415.703 L 335.598 415.703 L 335.598 319.943 L 321.098 319.943 L 321.098 314.073 L 343.348 314.073 L 343.348 421.573 Z" transform="matrix(1.4765729904174805, 0, 0, 1.3578910827636719, -93.4545669555664, -107.71546936035156)" style="fill: rgb(245, 161, 40); white-space: pre;"/>
</svg>