<?xml version="1.0" encoding="utf-8"?>
<svg viewBox="0 0 500 500" xmlns="http://www.w3.org/2000/svg">
  <path d="M 221.81 193.59 H 238.78 V 227.531 H 272.72 V 244.501 H 238.78 V 278.441 H 221.81 V 244.501 H 187.869 V 227.531 H 221.81 Z" style="fill: rgb(245, 161, 40);" transform="matrix(0.999998, -0.002204, 0.002204, 0.999998, -4.199875, 0.706731)"/>
  <path d="M 131.055 164.997 C 122.808 164.997 116.535 162.984 112.235 158.957 C 107.942 154.924 105.795 149.247 105.795 141.927 C 105.795 136.894 107.172 132.51 109.925 128.777 C 112.685 125.044 116.678 122.137 121.905 120.057 C 127.132 117.984 133.382 116.947 140.655 116.947 L 154.795 116.947 L 154.795 109.187 C 154.795 104.4 153.342 100.687 150.435 98.047 C 147.528 95.414 143.438 94.097 138.165 94.097 C 134.845 94.097 131.965 94.5 129.525 95.307 C 127.078 96.114 124.855 97.224 122.855 98.637 L 121.315 109.697 L 110.185 109.697 L 110.185 91.537 C 113.752 88.65 117.902 86.464 122.635 84.977 C 127.375 83.49 132.625 82.747 138.385 82.747 C 148.005 82.747 155.548 85.04 161.015 89.627 C 166.482 94.22 169.215 100.787 169.215 109.327 L 169.215 147.487 C 169.215 148.514 169.228 149.517 169.255 150.497 C 169.282 151.47 169.342 152.447 169.435 153.427 L 177.125 154.227 L 177.125 163.457 L 156.405 163.457 C 155.965 161.31 155.622 159.38 155.375 157.667 C 155.128 155.96 154.958 154.254 154.865 152.547 C 152.078 156.107 148.598 159.074 144.425 161.447 C 140.252 163.814 135.795 164.997 131.055 164.997 Z M 133.185 152.907 C 137.972 152.907 142.342 151.76 146.295 149.467 C 150.248 147.174 153.082 144.414 154.795 141.187 L 154.795 126.837 L 140.145 126.837 C 133.505 126.837 128.525 128.424 125.205 131.597 C 121.878 134.77 120.215 138.31 120.215 142.217 C 120.215 145.684 121.292 148.334 123.445 150.167 C 125.592 151.994 128.838 152.907 133.185 152.907 ZM 216.315 164.707 C 210.455 164.707 205.805 162.984 202.365 159.537 C 198.918 156.097 197.195 150.594 197.195 143.027 L 197.195 94.907 L 184.675 94.907 L 184.675 84.207 L 197.195 84.207 L 197.195 65.097 L 211.625 65.097 L 211.625 84.207 L 228.835 84.207 L 228.835 94.907 L 211.625 94.907 L 211.625 143.027 C 211.625 146.834 212.382 149.64 213.895 151.447 C 215.408 153.254 217.435 154.157 219.975 154.157 C 221.682 154.157 223.585 153.997 225.685 153.677 C 227.785 153.364 229.422 153.084 230.595 152.837 L 232.575 162.287 C 230.475 162.92 227.898 163.48 224.845 163.967 C 221.792 164.46 218.948 164.707 216.315 164.707 ZM 269.782 164.707 C 263.922 164.707 259.272 162.984 255.832 159.537 C 252.385 156.097 250.662 150.594 250.662 143.027 L 250.662 94.907 L 238.142 94.907 L 238.142 84.207 L 250.662 84.207 L 250.662 65.097 L 265.092 65.097 L 265.092 84.207 L 282.302 84.207 L 282.302 94.907 L 265.092 94.907 L 265.092 143.027 C 265.092 146.834 265.849 149.64 267.362 151.447 C 268.875 153.254 270.902 154.157 273.442 154.157 C 275.149 154.157 277.052 153.997 279.152 153.677 C 281.252 153.364 282.889 153.084 284.062 152.837 L 286.042 162.287 C 283.942 162.92 281.365 163.48 278.312 163.967 C 275.259 164.46 272.415 164.707 269.782 164.707 ZM 333.429 163.457 L 295.119 163.457 L 295.119 154.227 L 307.059 152.177 L 307.059 95.557 L 295.119 93.507 L 295.119 84.207 L 319.949 84.207 L 321.199 94.317 L 321.339 95.707 C 323.585 91.654 326.359 88.48 329.659 86.187 C 332.952 83.894 336.722 82.747 340.969 82.747 C 342.482 82.747 344.032 82.88 345.619 83.147 C 347.205 83.414 348.342 83.67 349.029 83.917 L 347.129 97.317 L 337.089 96.737 C 333.282 96.49 330.085 97.357 327.499 99.337 C 324.905 101.31 322.902 103.957 321.489 107.277 L 321.489 152.177 L 333.429 154.227 L 333.429 163.457 Z" transform="matrix(1, 0, 0, 1, 0, 0)" style="fill: rgb(51, 51, 51); white-space: pre;"/>
  <path d="M 131.053 408.744 C 122.806 408.744 116.533 406.731 112.233 402.704 C 107.94 398.671 105.793 392.994 105.793 385.674 C 105.793 380.641 107.17 376.257 109.923 372.524 C 112.683 368.791 116.676 365.884 121.903 363.804 C 127.13 361.731 133.38 360.694 140.653 360.694 L 154.793 360.694 L 154.793 352.934 C 154.793 348.147 153.34 344.434 150.433 341.794 C 147.526 339.161 143.436 337.844 138.163 337.844 C 134.843 337.844 131.963 338.247 129.523 339.054 C 127.076 339.861 124.853 340.971 122.853 342.384 L 121.313 353.444 L 110.183 353.444 L 110.183 335.284 C 113.75 332.397 117.9 330.211 122.633 328.724 C 127.373 327.237 132.623 326.494 138.383 326.494 C 148.003 326.494 155.546 328.787 161.013 333.374 C 166.48 337.967 169.213 344.534 169.213 353.074 L 169.213 391.234 C 169.213 392.261 169.226 393.264 169.253 394.244 C 169.28 395.217 169.34 396.194 169.433 397.174 L 177.123 397.974 L 177.123 407.204 L 156.403 407.204 C 155.963 405.057 155.62 403.127 155.373 401.414 C 155.126 399.707 154.956 398.001 154.863 396.294 C 152.076 399.854 148.596 402.821 144.423 405.194 C 140.25 407.561 135.793 408.744 131.053 408.744 Z M 133.183 396.654 C 137.97 396.654 142.34 395.507 146.293 393.214 C 150.246 390.921 153.08 388.161 154.793 384.934 L 154.793 370.584 L 140.143 370.584 C 133.503 370.584 128.523 372.171 125.203 375.344 C 121.876 378.517 120.213 382.057 120.213 385.964 C 120.213 389.431 121.29 392.081 123.443 393.914 C 125.59 395.741 128.836 396.654 133.183 396.654 ZM 216.313 408.454 C 210.453 408.454 205.803 406.731 202.363 403.284 C 198.916 399.844 197.193 394.341 197.193 386.774 L 197.193 338.654 L 184.673 338.654 L 184.673 327.954 L 197.193 327.954 L 197.193 308.844 L 211.623 308.844 L 211.623 327.954 L 228.833 327.954 L 228.833 338.654 L 211.623 338.654 L 211.623 386.774 C 211.623 390.581 212.38 393.387 213.893 395.194 C 215.406 397.001 217.433 397.904 219.973 397.904 C 221.68 397.904 223.583 397.744 225.683 397.424 C 227.783 397.111 229.42 396.831 230.593 396.584 L 232.573 406.034 C 230.473 406.667 227.896 407.227 224.843 407.714 C 221.79 408.207 218.946 408.454 216.313 408.454 ZM 269.78 408.454 C 263.92 408.454 259.27 406.731 255.83 403.284 C 252.383 399.844 250.66 394.341 250.66 386.774 L 250.66 338.654 L 238.14 338.654 L 238.14 327.954 L 250.66 327.954 L 250.66 308.844 L 265.09 308.844 L 265.09 327.954 L 282.3 327.954 L 282.3 338.654 L 265.09 338.654 L 265.09 386.774 C 265.09 390.581 265.847 393.387 267.36 395.194 C 268.873 397.001 270.9 397.904 273.44 397.904 C 275.147 397.904 277.05 397.744 279.15 397.424 C 281.25 397.111 282.887 396.831 284.06 396.584 L 286.04 406.034 C 283.94 406.667 281.363 407.227 278.31 407.714 C 275.257 408.207 272.413 408.454 269.78 408.454 ZM 333.427 407.204 L 295.117 407.204 L 295.117 397.974 L 307.057 395.924 L 307.057 339.304 L 295.117 337.254 L 295.117 327.954 L 319.947 327.954 L 321.197 338.064 L 321.337 339.454 C 323.583 335.401 326.357 332.227 329.657 329.934 C 332.95 327.641 336.72 326.494 340.967 326.494 C 342.48 326.494 344.03 326.627 345.617 326.894 C 347.203 327.161 348.34 327.417 349.027 327.664 L 347.127 341.064 L 337.087 340.484 C 333.28 340.237 330.083 341.104 327.497 343.084 C 324.903 345.057 322.9 347.704 321.487 351.024 L 321.487 395.924 L 333.427 397.974 L 333.427 407.204 Z" transform="matrix(1, 0, 0, 1, 0, 0)" style="fill: rgb(51, 51, 51); white-space: pre;"/>
</svg>