<?xml version="1.0" encoding="utf-8"?>
<svg viewBox="0 0 500 500" xmlns="http://www.w3.org/2000/svg">
  <path d="M 76.694 178.6 C 73.754 178.6 71.077 178.037 68.664 176.91 C 66.251 175.777 64.181 174.16 62.454 172.06 C 60.734 169.967 59.404 167.413 58.464 164.4 C 57.524 161.393 57.054 157.98 57.054 154.16 C 57.054 150.333 57.617 146.917 58.744 143.91 C 59.871 140.903 61.357 138.35 63.204 136.25 C 65.057 134.15 67.174 132.537 69.554 131.41 C 71.934 130.283 74.411 129.72 76.984 129.72 C 79.611 129.72 81.834 130.143 83.654 130.99 C 85.474 131.837 87.167 133.073 88.734 134.7 L 89.104 134.7 L 88.444 127.46 L 88.444 111.58 L 102.264 111.58 L 102.264 177.47 L 90.984 177.47 L 89.954 172.68 L 89.674 172.68 C 87.914 174.367 85.907 175.777 83.654 176.91 C 81.401 178.037 79.081 178.6 76.694 178.6 Z M 80.274 167.32 C 81.841 167.32 83.281 166.99 84.594 166.33 C 85.907 165.67 87.191 164.557 88.444 162.99 L 88.444 144.1 C 87.191 142.973 85.924 142.173 84.644 141.7 C 83.357 141.233 82.024 141 80.644 141 C 78.077 141 75.871 142.063 74.024 144.19 C 72.171 146.323 71.244 149.583 71.244 153.97 C 71.244 158.61 72.027 161.993 73.594 164.12 C 75.161 166.253 77.387 167.32 80.274 167.32 ZM 148.981 177.47 L 135.161 177.47 L 135.161 141.66 L 116.461 141.66 L 116.461 130.85 L 148.981 130.85 L 148.981 177.47 Z M 141.461 123.51 C 138.768 123.51 136.558 122.76 134.831 121.26 C 133.111 119.753 132.251 117.717 132.251 115.15 C 132.251 112.577 133.111 110.493 134.831 108.9 C 136.558 107.3 138.768 106.5 141.461 106.5 C 144.155 106.5 146.365 107.3 148.091 108.9 C 149.811 110.493 150.671 112.577 150.671 115.15 C 150.671 117.717 149.811 119.753 148.091 121.26 C 146.365 122.76 144.155 123.51 141.461 123.51 ZM 197.668 178.6 C 193.975 178.6 190.562 178.05 187.428 176.95 C 184.295 175.857 181.552 174.277 179.198 172.21 C 176.852 170.137 175.018 167.58 173.698 164.54 C 172.385 161.507 171.728 158.047 171.728 154.16 C 171.728 150.273 172.465 146.81 173.938 143.77 C 175.412 140.73 177.385 138.177 179.858 136.11 C 182.332 134.043 185.198 132.46 188.458 131.36 C 191.718 130.267 195.135 129.72 198.708 129.72 C 202.402 129.72 205.738 130.313 208.718 131.5 C 211.692 132.693 214.182 134.2 216.188 136.02 L 209.798 144.57 C 206.352 142.123 202.905 140.9 199.458 140.9 C 195.445 140.9 192.185 142.093 189.678 144.48 C 187.172 146.86 185.918 150.087 185.918 154.16 C 185.918 158.233 187.125 161.46 189.538 163.84 C 191.952 166.22 195.102 167.41 198.988 167.41 C 201.428 167.41 203.668 166.973 205.708 166.1 C 207.742 165.22 209.605 164.183 211.298 162.99 L 216.848 171.74 C 214.028 174.12 210.925 175.857 207.538 176.95 C 204.158 178.05 200.868 178.6 197.668 178.6 ZM 258.296 178.6 C 254.602 178.6 251.469 178.097 248.896 177.09 C 246.329 176.09 244.246 174.697 242.646 172.91 C 241.046 171.123 239.902 168.977 239.216 166.47 C 238.529 163.963 238.186 161.177 238.186 158.11 L 238.186 141.66 L 226.436 141.66 L 226.436 131.41 L 238.836 130.85 L 240.626 116.56 L 251.996 116.56 L 251.996 130.85 L 271.736 130.85 L 271.736 141.66 L 251.996 141.66 L 251.996 158.01 C 251.996 161.583 252.779 164.107 254.346 165.58 C 255.912 167.053 258.419 167.79 261.866 167.79 C 263.626 167.79 265.239 167.633 266.706 167.32 C 268.179 167.007 269.639 166.6 271.086 166.1 L 273.526 176.06 C 271.459 176.687 269.186 177.267 266.706 177.8 C 264.232 178.333 261.429 178.6 258.296 178.6 Z" transform="matrix(1.4765729904174805, 0, 0, 1.3578910827636719, -17.27417755126953, -103.19876861572266)" style="fill: rgb(245, 161, 40); white-space: pre;"/>
  <path d="M 57.446 1008.88 H 424.63 L 424.63 958.923 L 507.127 1025.412 L 424.63 1091.901 L 424.63 1041.945 H 57.446 V 1008.88 Z" style="fill: rgb(155, 154, 154);" transform="matrix(0.999994, 0.00343, -0.004056, 0.999992, -31.91716, -796.253662)"/>
  <path d="M 123.482 421.573 L 101.102 421.573 L 101.102 314.073 L 123.482 314.073 L 123.482 319.943 L 108.852 319.943 L 108.852 415.703 L 123.482 415.703 L 123.482 421.573 ZM 171.755 421.573 L 149.375 421.573 L 149.375 314.073 L 171.755 314.073 L 171.755 319.943 L 157.125 319.943 L 157.125 415.703 L 171.755 415.703 L 171.755 421.573 ZM 201.528 404.073 C 199.441 404.073 197.668 403.343 196.208 401.883 C 194.755 400.423 194.028 398.57 194.028 396.323 C 194.028 393.903 194.755 391.966 196.208 390.513 C 197.668 389.053 199.441 388.323 201.528 388.323 C 203.528 388.323 205.255 389.053 206.708 390.513 C 208.168 391.966 208.898 393.903 208.898 396.323 C 208.898 398.57 208.168 400.423 206.708 401.883 C 205.255 403.343 203.528 404.073 201.528 404.073 ZM 243.051 404.073 C 240.965 404.073 239.191 403.343 237.731 401.883 C 236.278 400.423 235.551 398.57 235.551 396.323 C 235.551 393.903 236.278 391.966 237.731 390.513 C 239.191 389.053 240.965 388.323 243.051 388.323 C 245.051 388.323 246.778 389.053 248.231 390.513 C 249.691 391.966 250.421 393.903 250.421 396.323 C 250.421 398.57 249.691 400.423 248.231 401.883 C 246.778 403.343 245.051 404.073 243.051 404.073 ZM 295.075 421.573 L 272.825 421.573 L 272.825 415.703 L 287.325 415.703 L 287.325 319.943 L 272.825 319.943 L 272.825 314.073 L 295.075 314.073 L 295.075 421.573 ZM 343.348 421.573 L 321.098 421.573 L 321.098 415.703 L 335.598 415.703 L 335.598 319.943 L 321.098 319.943 L 321.098 314.073 L 343.348 314.073 L 343.348 421.573 Z" transform="matrix(1.4765729904174805, 0, 0, 1.3578910827636719, -106.69955444335938, -115.4594497680664)" style="fill: rgb(245, 161, 40); white-space: pre;"/>
</svg>