<?xml version="1.0" encoding="utf-8"?>
<svg viewBox="0 0 500 500" xmlns="http://www.w3.org/2000/svg">
  <path d="M 57.446 1008.88 H 424.63 L 424.63 958.923 L 507.127 1025.412 L 424.63 1091.901 L 424.63 1041.945 H 57.446 V 1008.88 Z" style="fill: rgb(155, 154, 154);" transform="matrix(0.999994, 0.00343, -0.004056, 0.999992, -31.91716, -796.253662)"/>
  <path d="M 86.788 150.525 C 75.467 150.525 66.456 146.791 59.752 139.322 C 53.048 131.854 49.696 121.218 49.696 107.412 C 49.696 100.731 50.77 94.706 52.915 89.339 C 55.071 83.961 57.936 79.403 61.509 75.665 C 65.072 71.934 69.192 69.052 73.868 67.015 C 78.544 64.978 83.466 63.96 88.634 63.96 C 93.802 63.96 98.295 64.805 102.115 66.499 C 105.924 68.2 109.797 70.522 113.735 73.465 L 112.997 59.37 L 112.997 27.636 L 128.324 27.636 L 128.324 148.488 L 115.773 148.488 L 114.474 138.806 L 113.927 138.806 C 110.354 141.974 106.26 144.723 101.642 147.049 C 97.035 149.367 92.084 150.525 86.788 150.525 Z M 90.11 138.806 C 94.293 138.806 98.231 137.874 101.923 136.009 C 105.614 134.145 109.306 131.288 112.997 127.441 L 112.997 84.328 C 109.188 81.16 105.526 78.923 102.011 77.62 C 98.508 76.316 94.909 75.665 91.218 75.665 C 87.655 75.665 84.303 76.429 81.162 77.959 C 78.022 79.49 75.285 81.639 72.952 84.409 C 70.609 87.179 68.763 90.489 67.415 94.336 C 66.057 98.182 65.378 102.483 65.378 107.236 C 65.378 117.193 67.533 124.946 71.845 130.496 C 76.146 136.036 82.236 138.806 90.11 138.806 Z M 189.072 148.488 L 173.937 148.488 L 173.937 65.996 L 189.072 65.996 L 189.072 148.488 Z M 181.689 49.023 C 178.736 49.023 176.246 48.171 174.217 46.47 C 172.19 44.777 171.176 42.627 171.176 40.02 C 171.176 37.304 172.19 35.127 174.217 33.488 C 176.246 31.849 178.736 31.031 181.689 31.031 C 184.642 31.031 187.133 31.849 189.16 33.488 C 191.198 35.127 192.217 37.304 192.217 40.02 C 192.217 42.627 191.198 44.777 189.16 46.47 C 187.133 48.171 184.642 49.023 181.689 49.023 Z M 270.134 150.525 C 264.228 150.525 258.691 149.561 253.523 147.633 C 248.355 145.714 243.895 142.917 240.145 139.241 C 236.394 135.557 233.441 131.03 231.285 125.662 C 229.13 120.285 228.052 114.201 228.052 107.412 C 228.052 100.504 229.223 94.367 231.566 88.999 C 233.899 83.622 237.034 79.063 240.972 75.325 C 244.908 71.595 249.492 68.766 254.719 66.838 C 259.955 64.92 265.462 63.96 271.241 63.96 C 277.148 63.96 282.192 64.92 286.376 66.838 C 290.559 68.766 294.251 71.03 297.451 73.628 L 289.699 82.793 C 287.119 80.648 284.383 78.896 281.489 77.538 C 278.595 76.181 275.366 75.502 271.803 75.502 C 267.736 75.502 263.981 76.266 260.536 77.796 C 257.09 79.317 254.137 81.494 251.677 84.328 C 249.215 87.152 247.277 90.52 245.859 94.431 C 244.451 98.332 243.748 102.659 243.748 107.412 C 243.748 112.165 244.421 116.465 245.771 120.312 C 247.129 124.159 249.004 127.468 251.396 130.238 C 253.797 133.008 256.721 135.158 260.167 136.688 C 263.612 138.219 267.367 138.983 271.433 138.983 C 275.617 138.983 279.46 138.164 282.965 136.525 C 286.469 134.878 289.64 132.923 292.475 130.659 L 299.119 140.001 C 295.053 143.278 290.559 145.854 285.638 147.728 C 280.715 149.592 275.547 150.525 270.134 150.525 Z M 360.614 150.525 C 355.811 150.525 351.78 149.846 348.521 148.488 C 345.262 147.13 342.615 145.261 340.577 142.88 C 338.55 140.508 337.107 137.625 336.251 134.23 C 335.384 130.836 334.951 127.101 334.951 123.028 L 334.951 77.362 L 321.662 77.362 L 321.662 66.838 L 335.689 65.996 L 337.535 42.912 L 350.278 42.912 L 350.278 65.996 L 374.449 65.996 L 374.449 77.362 L 350.278 77.362 L 350.278 123.191 C 350.278 128.287 351.292 132.221 353.32 134.991 C 355.347 137.761 358.945 139.146 364.113 139.146 C 365.719 139.146 367.44 138.919 369.281 138.467 C 371.132 138.015 372.796 137.507 374.272 136.946 L 377.225 147.47 C 374.764 148.267 372.087 148.973 369.193 149.588 C 366.299 150.213 363.439 150.525 360.614 150.525 Z" style="white-space: pre; fill: rgb(154, 153, 152);"/>
  <path d="M 51.076 428.92 L 42.946 423.5 C 45.246 419.98 46.979 416.39 48.146 412.73 C 49.319 409.07 49.906 405.19 49.906 401.09 L 49.906 389.95 L 64.336 389.95 L 64.336 400.87 C 64.336 405.65 63.139 410.653 60.746 415.88 C 58.353 421.107 55.129 425.453 51.076 428.92 ZM 124.986 407.68 C 114.293 407.68 105.369 405.337 98.216 400.65 C 91.063 395.963 85.689 389.54 82.096 381.38 C 78.509 373.227 76.716 363.977 76.716 353.63 L 76.716 352.09 C 76.716 341.637 78.596 332.347 82.356 324.22 C 86.116 316.087 91.513 309.677 98.546 304.99 C 105.573 300.303 113.969 297.96 123.736 297.96 C 130.623 297.96 136.923 299.033 142.636 301.18 C 148.349 303.333 153.086 306.07 156.846 309.39 L 156.846 332.39 L 145.346 332.39 L 143.806 315.54 C 142.246 314.32 140.453 313.293 138.426 312.46 C 136.399 311.633 134.153 311 131.686 310.56 C 129.219 310.12 126.546 309.9 123.666 309.9 C 116.679 309.9 110.769 311.693 105.936 315.28 C 101.103 318.873 97.443 323.817 94.956 330.11 C 92.463 336.41 91.216 343.687 91.216 351.94 L 91.216 353.63 C 91.216 362.563 92.546 370.19 95.206 376.51 C 97.866 382.837 101.749 387.66 106.856 390.98 C 111.956 394.3 118.169 395.96 125.496 395.96 C 128.916 395.96 132.259 395.543 135.526 394.71 C 138.799 393.883 141.509 392.81 143.656 391.49 L 145.266 376.62 L 156.546 376.62 L 156.546 399.77 C 152.546 402.257 147.763 404.197 142.196 405.59 C 136.629 406.983 130.893 407.68 124.986 407.68 ZM 209.718 407.68 C 203.225 407.68 196.975 406.727 190.968 404.82 C 184.968 402.92 179.232 399.99 173.758 396.03 L 173.758 373.25 L 184.968 373.25 L 187.388 390.03 C 190.562 391.983 194.002 393.497 197.708 394.57 C 201.422 395.643 205.425 396.18 209.718 396.18 C 214.605 396.18 218.745 395.437 222.138 393.95 C 225.532 392.457 228.132 390.393 229.938 387.76 C 231.745 385.12 232.648 382.043 232.648 378.53 C 232.648 375.257 231.868 372.377 230.308 369.89 C 228.742 367.397 226.165 365.21 222.578 363.33 C 218.992 361.45 214.095 359.803 207.888 358.39 C 200.568 356.677 194.382 354.393 189.328 351.54 C 184.275 348.68 180.442 345.213 177.828 341.14 C 175.215 337.06 173.908 332.383 173.908 327.11 C 173.908 321.543 175.385 316.563 178.338 312.17 C 181.292 307.777 185.405 304.31 190.678 301.77 C 195.952 299.23 202.105 297.96 209.138 297.96 C 216.605 297.96 223.208 299.097 228.948 301.37 C 234.688 303.637 239.412 306.383 243.118 309.61 L 243.118 330.92 L 231.918 330.92 L 229.498 315.69 C 227.298 313.93 224.565 312.463 221.298 311.29 C 218.025 310.117 213.972 309.53 209.138 309.53 C 205.038 309.53 201.425 310.25 198.298 311.69 C 195.172 313.13 192.728 315.147 190.968 317.74 C 189.215 320.327 188.338 323.377 188.338 326.89 C 188.338 329.97 189.132 332.657 190.718 334.95 C 192.305 337.243 194.892 339.257 198.478 340.99 C 202.072 342.723 206.868 344.347 212.868 345.86 C 224.102 348.647 232.612 352.76 238.398 358.2 C 244.185 363.647 247.078 370.373 247.078 378.38 C 247.078 384.093 245.538 389.16 242.458 393.58 C 239.385 398 235.052 401.453 229.458 403.94 C 223.872 406.433 217.292 407.68 209.718 407.68 ZM 315.048 406.14 L 302.668 406.14 L 266.928 309.97 L 258.428 308.8 L 258.428 299.5 L 292.118 299.5 L 292.118 308.8 L 282.378 310.34 L 306.258 378.16 L 308.748 386.58 L 309.188 386.58 L 311.818 378.16 L 336.578 310.27 L 325.738 308.8 L 325.738 299.5 L 359.358 299.5 L 359.358 308.8 L 350.788 309.97 L 315.048 406.14 ZM 357.448 428.92 L 349.318 423.5 C 351.618 419.98 353.351 416.39 354.518 412.73 C 355.691 409.07 356.278 405.19 356.278 401.09 L 356.278 389.95 L 370.708 389.95 L 370.708 400.87 C 370.708 405.65 369.511 410.653 367.118 415.88 C 364.725 421.107 361.501 425.453 357.448 428.92 Z" transform="matrix(1, 0, 0, 1, 0, 0)" style="fill: rgb(245, 161, 40); white-space: pre;"/>
</svg>