<?xml version="1.0" encoding="utf-8"?>
<svg viewBox="0 0 500 500" xmlns="http://www.w3.org/2000/svg">
  <ellipse style="stroke: rgb(0, 0, 0); stroke-width: 8px; fill: rgb(186, 186, 186);" cx="170.352" cy="335.576" rx="27.316" ry="33.106" transform="matrix(0.136523, 0.990637, -1.016011, -0.047595, 651.763123, -96.651878)"/>
  <ellipse style="stroke: rgb(0, 0, 0); stroke-width: 8px; fill: rgb(173, 173, 173);" cx="164.145" cy="300.611" rx="26.289" ry="29.691" transform="matrix(0.090986, -0.995852, 1.015236, -0.121172, -212.943848, 258.243225)"/>
  <ellipse style="stroke: rgb(0, 0, 0); stroke-width: 8px; fill: rgb(211, 211, 211);" cx="224.116" cy="124.899" rx="147.312" ry="105.301"/>
  <ellipse style="" cx="756.48" cy="881.204" rx="47.985" ry="25.886" transform="matrix(0.856954, -0.515393, 0.847619, 0.657145, -1241.56311, -67.778458)"/>
  <circle style="stroke: rgb(255, 255, 255); fill: none;" cx="186.81" cy="238.11" r="5.589" transform="matrix(2.323943, -0.38925, 0.620116, 1.726275, -413.876709, -225.910904)"/>
  <ellipse style="" cx="756.48" cy="881.204" rx="47.985" ry="25.886" transform="matrix(-0.856954, -0.515393, -0.847619, 0.657145, 1687.87793, -68.548492)"/>
  <circle style="stroke: rgb(255, 255, 255); fill: none;" cx="186.81" cy="238.11" r="5.589" transform="matrix(-2.323943, -0.38925, -0.620116, 1.726275, 860.191467, -226.680954)"/>
  <path style="fill: rgb(216, 216, 216); stroke: rgb(0, 0, 0);" d="M 146.745 348.515"/>
  <path style="fill: none; stroke: rgb(0, 0, 0); stroke-width: 5px;" d="M 224.904 166.209 C 262.521 166.209 274 171.981 267.014 196.417" transform="matrix(-0.841684, 0.53997, -0.53997, -0.841684, 552.662598, 200.588867)"/>
  <ellipse style="" cx="222.861" cy="169.653" rx="18.187" ry="8.823"/>
  <path style="fill: none; stroke: rgb(0, 0, 0); stroke-width: 6px;" d="M 177.457 197.086 C 215.074 197.086 226.555 191.313 219.568 166.877" transform="matrix(0.841684, 0.53997, -0.53997, 0.841684, 129.845276, -78.902267)"/>
  <path d="M 56.068 252.2 L 359.307 252.2 L 359.307 239.593 L 419.796 272.48 L 359.307 305.367 L 359.307 292.76 L 56.068 292.76 L 56.068 252.2 Z" style="fill: rgb(160, 158, 158);" transform="matrix(0.999993, 0.00377, -0.00377, 0.999993, 1.02894, -0.895067)"/>
  <path d="M 121.065 461.071 L 92.945 461.071 L 92.945 316.341 L 121.065 316.341 L 121.065 327.701 L 107.375 327.701 L 107.375 449.721 L 121.065 449.721 L 121.065 461.071 ZM 163.031 461.071 L 134.911 461.071 L 134.911 316.341 L 163.031 316.341 L 163.031 327.701 L 149.341 327.701 L 149.341 449.721 L 163.031 449.721 L 163.031 461.071 ZM 227.704 438.221 L 213.274 438.221 L 213.274 423.431 L 227.704 423.431 L 227.704 438.221 ZM 263.811 438.221 L 249.381 438.221 L 249.381 423.431 L 263.811 423.431 L 263.811 438.221 ZM 304.747 461.071 L 276.547 461.071 L 276.547 449.721 L 290.317 449.721 L 290.317 327.701 L 276.547 327.701 L 276.547 316.341 L 304.747 316.341 L 304.747 461.071 ZM 345.175 461.071 L 316.975 461.071 L 316.975 449.721 L 330.745 449.721 L 330.745 327.701 L 316.975 327.701 L 316.975 316.341 L 345.175 316.341 L 345.175 461.071 Z" transform="matrix(1.1120959520339966, 0, 0, 1.1459039449691772, -9.128829002380371, -41.04450988769531)" style="fill: rgb(245, 161, 40); white-space: pre;"/>
</svg>