<?xml version="1.0" encoding="utf-8"?>
<svg viewBox="0 0 500 500" xmlns="http://www.w3.org/2000/svg">
  <rect x="400" y="206.875" width="96.674" height="27.938" style="fill: rgb(122, 122, 122);"/>
  <rect x="11.026" y="206.875" width="96.674" height="27.938" style="fill: rgb(121, 121, 121);"/>
  <rect x="409.719" y="234.875" width="96.674" height="27.938" style="fill: rgb(121, 121, 121);" transform="matrix(-0.002237, 0.999997, -0.999997, -0.002237, 505.16098, -46.567467)"/>
  <rect x="166.667" y="83.334" width="250" height="250" style="paint-order: fill; fill: rgb(231, 172, 59);" transform="matrix(0.702603, -0.711582, 0.711582, 0.702603, -98.851646, 280.628662)"/>
  <path d="M 260.163 264.385 L 245.733 264.385 C 245.733 260.818 245.853 257.888 246.093 255.595 C 246.34 253.302 246.816 251.325 247.523 249.665 C 248.23 248.005 249.316 246.345 250.783 244.685 C 252.25 243.025 254.226 241.072 256.713 238.825 C 260.18 235.698 262.88 232.792 264.813 230.105 C 266.74 227.425 268.106 224.815 268.913 222.275 C 269.72 219.735 270.123 217.145 270.123 214.505 C 270.123 209.332 268.743 205.352 265.983 202.565 C 263.223 199.785 259.28 198.395 254.153 198.395 C 249.713 198.395 245.94 199.602 242.833 202.015 C 239.733 204.435 238.183 207.988 238.183 212.675 L 224.413 212.675 L 224.193 212.235 C 224.1 207.015 225.333 202.452 227.893 198.545 C 230.46 194.638 234.013 191.608 238.553 189.455 C 243.093 187.308 248.293 186.235 254.153 186.235 C 263.773 186.235 271.243 188.688 276.563 193.595 C 281.89 198.502 284.553 205.352 284.553 214.145 C 284.553 218.345 283.856 222.165 282.463 225.605 C 281.07 229.045 278.983 232.488 276.203 235.935 C 273.416 239.375 269.923 243.218 265.723 247.465 C 264.016 249.225 262.773 250.825 261.993 252.265 C 261.213 253.705 260.713 255.342 260.493 257.175 C 260.273 259.002 260.163 261.405 260.163 264.385 Z M 260.603 294.415 L 245.583 294.415 L 245.583 279.185 L 260.603 279.185 L 260.603 294.415 Z" transform="matrix(1.5426139831542969, 0, 0, 1.328197956085205, -138.3868408203125, -96.67452239990234)" style="fill: rgb(255, 255, 255); white-space: pre;"/>
</svg>