<?xml version="1.0" encoding="utf-8"?>
<svg viewBox="0 0 500 500" xmlns="http://www.w3.org/2000/svg">
  <rect x="74.72" y="41.705" width="227.283" height="283.808" style="fill: rgb(216, 216, 216); stroke-width: 11px; stroke: rgb(90, 90, 90);"/>
  <line style="stroke: rgb(86, 85, 85); stroke-width: 10px;" x1="74.72" y1="85.427" x2="302.216" y2="85.262"/>
  <line style="stroke: rgb(86, 85, 85); stroke-width: 10px;" x1="74.72" y1="165.294" x2="302.216" y2="165.129"/>
  <line style="stroke: rgb(86, 85, 85); stroke-width: 10px;" x1="74.506" y1="125.361" x2="302.002" y2="125.195"/>
  <line style="stroke: rgb(86, 85, 85); stroke-width: 10px;" x1="74.72" y1="205.227" x2="302.216" y2="205.062"/>
  <line style="stroke: rgb(86, 85, 85); stroke-width: 10px;" x1="74.72" y1="245.16" x2="302.216" y2="244.997"/>
  <line style="stroke: rgb(86, 85, 85); stroke-width: 10px;" x1="74.506" y1="285.094" x2="302.002" y2="284.93"/>
  <line style="stroke: rgb(86, 85, 85); stroke-width: 10px;" x1="127.322" y1="41.705" x2="127.541" y2="325.513"/>
  <line style="stroke: rgb(86, 85, 85); stroke-width: 10px;" x1="193.899" y1="41.705" x2="193.931" y2="325.513"/>
  <line style="stroke: rgb(86, 85, 85); stroke-width: 10px;" x1="248.581" y1="41.705" x2="249.203" y2="325.513"/>
  <rect x="302.002" y="41.705" width="107.455" height="283.808" style="fill: rgb(216, 216, 216); stroke-width: 11px; stroke: rgb(159, 157, 154);"/>
  <line style="stroke-width: 10px; stroke: rgb(159, 157, 154);" x1="336.354" y1="41.705" x2="336.573" y2="325.513"/>
  <line style="stroke-width: 10px; stroke: rgb(159, 157, 154);" x1="375.322" y1="41.705" x2="375.541" y2="325.513"/>
  <line style="stroke-width: 10px; stroke: rgb(159, 157, 154);" x1="302.216" y1="85.262" x2="409.457" y2="85.098"/>
  <line style="stroke-width: 10px; stroke: rgb(159, 157, 154);" x1="302.002" y1="125.195" x2="409.243" y2="125.032"/>
  <line style="stroke-width: 10px; stroke: rgb(159, 157, 154);" x1="302.216" y1="165.129" x2="409.457" y2="164.965"/>
  <line style="stroke-width: 10px; stroke: rgb(159, 157, 154);" x1="302.002" y1="205.062" x2="409.243" y2="204.898"/>
  <line style="stroke-width: 10px; stroke: rgb(159, 157, 154);" x1="302.002" y1="244.997" x2="409.243" y2="244.833"/>
  <line style="stroke-width: 10px; stroke: rgb(159, 157, 154);" x1="302.002" y1="284.93" x2="409.243" y2="284.766"/>
  <rect x="47.479" y="117.132" width="400" height="110.679" style="fill: rgb(216, 216, 216); stroke: rgb(245, 161, 40); stroke-width: 11px;"/>
  <path d="M 182.31 224.154 C 179.237 224.154 176.277 223.704 173.43 222.804 C 170.59 221.897 167.877 220.511 165.29 218.644 L 165.29 207.854 L 170.59 207.854 L 171.74 215.794 C 173.24 216.721 174.867 217.437 176.62 217.944 C 178.38 218.457 180.277 218.714 182.31 218.714 C 184.623 218.714 186.583 218.361 188.19 217.654 C 189.79 216.947 191.02 215.971 191.88 214.724 C 192.733 213.477 193.16 212.021 193.16 210.354 C 193.16 208.807 192.79 207.444 192.05 206.264 C 191.31 205.084 190.09 204.051 188.39 203.164 C 186.69 202.271 184.373 201.491 181.44 200.824 C 177.973 200.011 175.043 198.931 172.65 197.584 C 170.263 196.231 168.45 194.587 167.21 192.654 C 165.977 190.727 165.36 188.514 165.36 186.014 C 165.36 183.381 166.057 181.024 167.45 178.944 C 168.85 176.864 170.8 175.224 173.3 174.024 C 175.793 172.824 178.703 172.224 182.03 172.224 C 185.57 172.224 188.697 172.761 191.41 173.834 C 194.123 174.907 196.36 176.207 198.12 177.734 L 198.12 187.824 L 192.81 187.824 L 191.67 180.614 C 190.63 179.781 189.337 179.084 187.79 178.524 C 186.237 177.971 184.317 177.694 182.03 177.694 C 180.09 177.694 178.38 178.037 176.9 178.724 C 175.42 179.404 174.263 180.357 173.43 181.584 C 172.603 182.804 172.19 184.247 172.19 185.914 C 172.19 187.367 172.563 188.637 173.31 189.724 C 174.063 190.811 175.29 191.764 176.99 192.584 C 178.69 193.404 180.96 194.174 183.8 194.894 C 189.113 196.207 193.14 198.154 195.88 200.734 C 198.62 203.314 199.99 206.497 199.99 210.284 C 199.99 212.991 199.263 215.387 197.81 217.474 C 196.35 219.567 194.297 221.204 191.65 222.384 C 189.003 223.564 185.89 224.154 182.31 224.154 ZM 244.358 223.424 L 205.918 223.424 L 205.918 219.054 L 211.568 218.084 L 211.568 178.324 L 205.918 177.354 L 205.918 172.944 L 243.288 172.944 L 243.288 185.084 L 237.808 185.084 L 237.048 178.214 L 218.398 178.214 L 218.398 194.654 L 237.018 194.654 L 237.018 200.024 L 218.398 200.024 L 218.398 218.294 L 238.158 218.294 L 238.918 211.324 L 244.358 211.324 L 244.358 223.424 ZM 287.552 223.424 L 251.192 223.424 L 251.192 219.054 L 256.842 218.084 L 256.842 178.324 L 251.192 177.354 L 251.192 172.944 L 256.842 172.944 L 263.672 172.944 L 269.322 172.944 L 269.322 177.354 L 263.672 178.324 L 263.672 218.194 L 281.522 218.194 L 282.322 210.214 L 287.552 210.214 L 287.552 223.424 ZM 331.578 223.424 L 293.138 223.424 L 293.138 219.054 L 298.788 218.084 L 298.788 178.324 L 293.138 177.354 L 293.138 172.944 L 330.508 172.944 L 330.508 185.084 L 325.028 185.084 L 324.268 178.214 L 305.618 178.214 L 305.618 194.654 L 324.238 194.654 L 324.238 200.024 L 305.618 200.024 L 305.618 218.294 L 325.378 218.294 L 326.138 211.324 L 331.578 211.324 L 331.578 223.424 ZM 361.222 224.154 C 356.162 224.154 351.939 223.044 348.552 220.824 C 345.165 218.604 342.622 215.564 340.922 211.704 C 339.222 207.844 338.372 203.464 338.372 198.564 L 338.372 197.844 C 338.372 192.897 339.262 188.497 341.042 184.644 C 342.822 180.797 345.375 177.764 348.702 175.544 C 352.035 173.331 356.012 172.224 360.632 172.224 C 363.892 172.224 366.872 172.731 369.572 173.744 C 372.279 174.764 374.522 176.057 376.302 177.624 L 376.302 188.514 L 370.862 188.514 L 370.132 180.544 C 369.392 179.964 368.542 179.477 367.582 179.084 C 366.622 178.691 365.559 178.391 364.392 178.184 C 363.225 177.977 361.962 177.874 360.602 177.874 C 357.295 177.874 354.499 178.721 352.212 180.414 C 349.919 182.114 348.185 184.454 347.012 187.434 C 345.832 190.421 345.242 193.867 345.242 197.774 L 345.242 198.564 C 345.242 202.797 345.872 206.411 347.132 209.404 C 348.392 212.397 350.229 214.677 352.642 216.244 C 355.055 217.817 357.995 218.604 361.462 218.604 C 363.082 218.604 364.665 218.407 366.212 218.014 C 367.759 217.621 369.042 217.114 370.062 216.494 L 370.822 209.454 L 376.162 209.454 L 376.162 220.404 C 374.269 221.584 372.005 222.504 369.372 223.164 C 366.732 223.824 364.015 224.154 361.222 224.154 ZM 412.706 223.424 L 394.566 223.424 L 394.566 219.054 L 400.216 218.084 L 400.216 178.114 L 388.776 178.114 L 387.776 185.114 L 382.646 185.114 L 382.646 172.944 L 424.596 172.944 L 424.596 185.114 L 419.526 185.114 L 418.486 178.114 L 407.046 178.114 L 407.046 218.084 L 412.706 219.054 L 412.706 223.424 Z" transform="matrix(1.1482750177383423, 0, 0, 1.288917064666748, -96.15509796142578, -85.19445037841797)" style="fill: rgb(51, 51, 51); white-space: pre;"/>
</svg>