<?xml version="1.0" encoding="utf-8"?>
<svg viewBox="0 0 500 500" xmlns="http://www.w3.org/2000/svg">
  <path d="M 87.794 177.47 L 73.874 177.47 L 73.874 156.79 L 54.134 116.18 L 68.994 116.18 L 75.194 130.94 C 76.074 133.32 76.984 135.64 77.924 137.9 C 78.864 140.153 79.804 142.503 80.744 144.95 L 81.114 144.95 C 82.121 142.503 83.094 140.153 84.034 137.9 C 84.974 135.64 85.914 133.32 86.854 130.94 L 93.054 116.18 L 107.534 116.18 L 87.794 156.79 L 87.794 177.47 ZM 144.191 177.47 L 130.271 177.47 L 130.271 156.79 L 110.531 116.18 L 125.391 116.18 L 131.591 130.94 C 132.471 133.32 133.381 135.64 134.321 137.9 C 135.261 140.153 136.201 142.503 137.141 144.95 L 137.511 144.95 C 138.517 142.503 139.491 140.153 140.431 137.9 C 141.371 135.64 142.311 133.32 143.251 130.94 L 149.451 116.18 L 163.931 116.18 L 144.191 156.79 L 144.191 177.47 ZM 200.587 177.47 L 186.667 177.47 L 186.667 156.79 L 166.927 116.18 L 181.787 116.18 L 187.987 130.94 C 188.867 133.32 189.777 135.64 190.717 137.9 C 191.657 140.153 192.597 142.503 193.537 144.95 L 193.907 144.95 C 194.914 142.503 195.887 140.153 196.827 137.9 C 197.767 135.64 198.707 133.32 199.647 130.94 L 205.847 116.18 L 220.327 116.18 L 200.587 156.79 L 200.587 177.47 ZM 256.984 177.47 L 243.064 177.47 L 243.064 156.79 L 223.324 116.18 L 238.184 116.18 L 244.384 130.94 C 245.264 133.32 246.174 135.64 247.114 137.9 C 248.054 140.153 248.994 142.503 249.934 144.95 L 250.304 144.95 C 251.311 142.503 252.284 140.153 253.224 137.9 C 254.164 135.64 255.104 133.32 256.044 130.94 L 262.244 116.18 L 276.724 116.18 L 256.984 156.79 L 256.984 177.47 ZM 328.041 151.34 L 284.801 151.34 L 284.801 141.56 L 328.041 141.56 L 328.041 151.34 ZM 351.537 177.47 L 340.067 177.47 L 340.067 116.18 L 354.547 116.18 L 360.557 137.9 L 362.627 146.36 L 363.007 146.36 L 365.077 137.9 L 371.087 116.18 L 385.567 116.18 L 385.567 177.47 L 373.907 177.47 L 373.907 158.48 C 373.907 156.787 373.971 154.657 374.097 152.09 C 374.224 149.523 374.381 146.89 374.567 144.19 C 374.754 141.497 374.957 138.88 375.177 136.34 C 375.397 133.807 375.571 131.723 375.697 130.09 L 375.417 130.09 L 370.717 146.45 L 366.017 161.21 L 359.247 161.21 L 354.447 146.45 L 350.037 130.09 L 349.747 130.09 C 349.941 131.723 350.131 133.807 350.317 136.34 C 350.504 138.88 350.691 141.497 350.877 144.19 C 351.064 146.89 351.221 149.523 351.347 152.09 C 351.474 154.657 351.537 156.787 351.537 158.48 L 351.537 177.47 ZM 407.934 177.47 L 396.464 177.47 L 396.464 116.18 L 410.944 116.18 L 416.954 137.9 L 419.024 146.36 L 419.404 146.36 L 421.474 137.9 L 427.484 116.18 L 441.964 116.18 L 441.964 177.47 L 430.304 177.47 L 430.304 158.48 C 430.304 156.787 430.367 154.657 430.494 152.09 C 430.621 149.523 430.777 146.89 430.964 144.19 C 431.151 141.497 431.354 138.88 431.574 136.34 C 431.794 133.807 431.967 131.723 432.094 130.09 L 431.814 130.09 L 427.114 146.45 L 422.414 161.21 L 415.644 161.21 L 410.844 146.45 L 406.434 130.09 L 406.144 130.09 C 406.337 131.723 406.527 133.807 406.714 136.34 C 406.901 138.88 407.087 141.497 407.274 144.19 C 407.461 146.89 407.617 149.523 407.744 152.09 C 407.871 154.657 407.934 156.787 407.934 158.48 L 407.934 177.47 ZM 497.231 151.34 L 453.991 151.34 L 453.991 141.56 L 497.231 141.56 L 497.231 151.34 ZM 528.158 177.47 L 510.388 177.47 L 510.388 116.18 L 527.308 116.18 C 531.754 116.18 535.798 116.777 539.438 117.97 C 543.071 119.157 546.171 120.99 548.738 123.47 C 551.311 125.943 553.301 129.09 554.708 132.91 C 556.121 136.737 556.828 141.28 556.828 146.54 C 556.828 151.807 556.138 156.383 554.758 160.27 C 553.378 164.157 551.418 167.367 548.878 169.9 C 546.344 172.44 543.321 174.337 539.808 175.59 C 536.301 176.843 532.418 177.47 528.158 177.47 Z M 524.298 127.37 L 524.298 166.28 L 526.558 166.28 C 528.938 166.28 531.114 165.937 533.088 165.25 C 535.061 164.563 536.754 163.45 538.168 161.91 C 539.574 160.377 540.671 158.357 541.458 155.85 C 542.238 153.343 542.628 150.24 542.628 146.54 C 542.628 142.907 542.238 139.853 541.458 137.38 C 540.671 134.907 539.574 132.933 538.168 131.46 C 536.754 129.987 535.061 128.937 533.088 128.31 C 531.114 127.683 528.938 127.37 526.558 127.37 L 524.298 127.37 ZM 584.554 177.47 L 566.784 177.47 L 566.784 116.18 L 583.704 116.18 C 588.151 116.18 592.194 116.777 595.834 117.97 C 599.468 119.157 602.568 120.99 605.134 123.47 C 607.708 125.943 609.698 129.09 611.104 132.91 C 612.518 136.737 613.224 141.28 613.224 146.54 C 613.224 151.807 612.534 156.383 611.154 160.27 C 609.774 164.157 607.814 167.367 605.274 169.9 C 602.741 172.44 599.718 174.337 596.204 175.59 C 592.698 176.843 588.814 177.47 584.554 177.47 Z M 580.694 127.37 L 580.694 166.28 L 582.954 166.28 C 585.334 166.28 587.511 165.937 589.484 165.25 C 591.458 164.563 593.151 163.45 594.564 161.91 C 595.971 160.377 597.068 158.357 597.854 155.85 C 598.634 153.343 599.024 150.24 599.024 146.54 C 599.024 142.907 598.634 139.853 597.854 137.38 C 597.068 134.907 595.971 132.933 594.564 131.46 C 593.151 129.987 591.458 128.937 589.484 128.31 C 587.511 127.683 585.334 127.37 582.954 127.37 L 580.694 127.37 Z" transform="matrix(0.8613600134849548, 0, 0, 1.3413389921188354, -41.54988479614258, -104.56294250488281)" style="fill: rgb(245, 161, 40); white-space: pre;"/>
  <path d="M 165.902 105.843 L 325.064 381.52 L 6.74 381.52 L 165.902 105.843 Z" style="fill: rgb(216, 216, 216);" transform="matrix(0.507808, 0.86147, -0.86147, 0.507808, 392.337036, -27.999681)"/>
  <rect x="191.829" y="342.76" width="72.334" height="147.034" style="fill: rgb(216, 216, 216);"/>
  <rect x="216.593" y="411.366" width="19.521" height="2.728" style="fill: rgb(216, 216, 216);"/>
  <ellipse style="fill: rgb(255, 254, 254);" cx="266.732" cy="486.727" rx="75.103" ry="29.281"/>
</svg>