<?xml version="1.0" encoding="utf-8"?>
<svg viewBox="0 0 500 500" xmlns="http://www.w3.org/2000/svg">
  <rect x="137.411" y="31.101" width="225.178" height="159.882" style="fill: rgb(233, 229, 229);"/>
  <path d="M 57.446 1008.88 H 424.63 L 424.63 958.923 L 507.127 1025.412 L 424.63 1091.901 L 424.63 1041.945 H 57.446 V 1008.88 Z" style="fill: rgb(155, 154, 154);" transform="matrix(0.999994, 0.00343, -0.004056, 0.999992, -28.125744, -796.253662)"/>
  <path d="M 123.482 421.573 L 101.102 421.573 L 101.102 314.073 L 123.482 314.073 L 123.482 319.943 L 108.852 319.943 L 108.852 415.703 L 123.482 415.703 L 123.482 421.573 ZM 178.356 421.573 L 156.106 421.573 L 156.106 415.703 L 170.606 415.703 L 170.606 319.943 L 156.106 319.943 L 156.106 314.073 L 178.356 314.073 L 178.356 421.573 Z" transform="matrix(2.3510870933532715, 0, 0, 1.8502779006958008, -72.6439437866211, -307.9354248046875)" style="fill: rgb(245, 161, 40); white-space: pre;"/>
  <line style="stroke-width: 11px; fill: rgb(123, 123, 123); stroke: rgb(177, 177, 177);" x1="152.687" y1="62.088" x2="347.313" y2="61.867"/>
  <line style="stroke-width: 11px; fill: rgb(123, 123, 123); stroke: rgb(177, 177, 177);" x1="152.687" y1="85.793" x2="347.313" y2="85.572"/>
  <line style="stroke-width: 11px; fill: rgb(123, 123, 123); stroke: rgb(177, 177, 177);" x1="152.687" y1="110.979" x2="347.313" y2="110.758"/>
  <line style="stroke-width: 11px; fill: rgb(123, 123, 123); stroke: rgb(177, 177, 177);" x1="152.687" y1="138.18" x2="347.313" y2="137.959"/>
  <line style="stroke-width: 11px; fill: rgb(123, 123, 123); stroke: rgb(177, 177, 177);" x1="152.687" y1="165.591" x2="347.313" y2="165.37"/>
</svg>