<?xml version="1.0" encoding="utf-8"?>
<svg viewBox="0 0 500 500" xmlns="http://www.w3.org/2000/svg">
  <ellipse style="stroke: rgb(0, 0, 0); stroke-width: 8px; fill: rgb(255, 161, 40);" cx="170.352" cy="335.576" rx="32.595" ry="38.519" transform="matrix(0.133055, 0.991109, -1.015527, -0.048835, 685.272034, 127.181252)"/>
  <ellipse style="stroke: rgb(0, 0, 0); stroke-width: 8px; fill: rgb(255, 161, 40);" cx="164.145" cy="300.611" rx="31.378" ry="34.536" transform="matrix(0.088651, -0.996063, 1.015021, -0.124363, -216.386429, 483.164856)"/>
  <ellipse style="stroke: rgb(0, 0, 0); stroke-width: 8px; fill: rgb(255, 161, 40);" cx="239.279" cy="361.725" rx="171.316" ry="125.711"/>
  <ellipse style="fill: rgb(216, 216, 216);"/>
  <ellipse style="" cx="756.48" cy="881.204" rx="56.202" ry="30.685" transform="matrix(0.850894, -0.525337, 0.831575, 0.661825, -1219.162964, 171.769989)"/>
  <circle style="stroke: rgb(255, 255, 255); fill: none;" cx="186.81" cy="238.11" r="5.589" transform="matrix(2.702624, -0.464697, 0.721162, 2.060874, -502.672577, -57.081348)"/>
  <ellipse style="" cx="756.48" cy="881.204" rx="56.202" ry="30.685" transform="matrix(-0.850894, -0.525337, -0.831575, 0.661825, 1695.49231, 170.850693)"/>
  <circle style="stroke: rgb(255, 255, 255); fill: none;" cx="186.81" cy="238.11" r="5.589" transform="matrix(-2.702624, -0.464697, -0.721162, 2.060874, 979.002014, -58.000668)"/>
  <path style="fill: rgb(216, 216, 216); stroke: rgb(0, 0, 0);" d="M 146.745 348.515"/>
  <path style="fill: none; stroke: rgb(0, 0, 0); stroke-width: 5px;" d="M 240.42 411.182 C 284.508 411.182 297.799 418.019 288.922 446.966" transform="matrix(-0.835158, 0.55001, -0.55001, -0.835158, 724.094299, 641.131775)"/>
  <ellipse style="" cx="237.819" cy="415.154" rx="21.15" ry="10.533"/>
  <path style="fill: none; stroke: rgb(0, 0, 0); stroke-width: 6px;" d="M 185.242 447.764 C 229.33 447.764 242.623 440.926 233.745 411.979" transform="matrix(0.835158, 0.55001, -0.55001, 0.835158, 271.181305, -45.077911)"/>
  <path d="M 64.885 105.16 L 78.215 105.16 L 79.315 106.84 C 78.048 111.727 76.218 117.403 73.825 123.87 C 71.432 130.343 68.942 136.363 66.355 141.93 L 57.195 141.93 C 58.515 136.85 59.968 130.573 61.555 123.1 C 63.142 115.633 64.252 109.653 64.885 105.16 ZM 149.923 25.1 C 138.156 25.1 128.866 29.02 122.053 36.86 C 115.246 44.7 111.843 55.43 111.843 69.05 C 111.843 83.063 115.126 93.89 121.693 101.53 C 128.259 109.177 137.619 113 149.773 113 C 157.246 113 165.769 111.657 175.343 108.97 L 175.343 119.88 C 167.916 122.66 158.759 124.05 147.873 124.05 C 132.099 124.05 119.929 119.267 111.363 109.7 C 102.796 100.127 98.513 86.527 98.513 68.9 C 98.513 57.867 100.573 48.2 104.693 39.9 C 108.819 31.6 114.779 25.203 122.573 20.71 C 130.359 16.217 139.526 13.97 150.073 13.97 C 161.299 13.97 171.113 16.02 179.513 20.12 L 174.243 30.82 C 166.136 27.007 158.029 25.1 149.923 25.1 ZM 259.131 94.1 C 259.131 103.52 255.711 110.867 248.871 116.14 C 242.038 121.413 232.761 124.05 221.041 124.05 C 208.348 124.05 198.581 122.417 191.741 119.15 L 191.741 107.14 C 196.141 108.993 200.928 110.457 206.101 111.53 C 211.275 112.603 216.401 113.14 221.481 113.14 C 229.781 113.14 236.031 111.567 240.231 108.42 C 244.431 105.267 246.531 100.883 246.531 95.27 C 246.531 91.557 245.785 88.517 244.291 86.15 C 242.805 83.783 240.315 81.6 236.821 79.6 C 233.335 77.593 228.025 75.323 220.891 72.79 C 210.931 69.223 203.815 64.997 199.541 60.11 C 195.275 55.23 193.141 48.86 193.141 41 C 193.141 32.747 196.241 26.18 202.441 21.3 C 208.641 16.413 216.845 13.97 227.051 13.97 C 237.691 13.97 247.481 15.923 256.421 19.83 L 252.531 30.67 C 243.698 26.957 235.105 25.1 226.751 25.1 C 220.165 25.1 215.015 26.517 211.301 29.35 C 207.588 32.183 205.731 36.113 205.731 41.14 C 205.731 44.853 206.415 47.893 207.781 50.26 C 209.148 52.633 211.458 54.807 214.711 56.78 C 217.958 58.76 222.925 60.947 229.611 63.34 C 240.845 67.34 248.571 71.637 252.791 76.23 C 257.018 80.817 259.131 86.773 259.131 94.1 ZM 317.726 84.36 L 342.186 15.51 L 355.586 15.51 L 316.986 122.59 L 304.686 122.59 L 266.306 15.51 L 279.486 15.51 L 304.096 84.8 C 306.929 92.76 309.176 100.497 310.836 108.01 C 312.596 100.103 314.892 92.22 317.726 84.36 ZM 367.888 105.16 L 381.218 105.16 L 382.318 106.84 C 381.051 111.727 379.221 117.403 376.828 123.87 C 374.435 130.343 371.945 136.363 369.358 141.93 L 360.198 141.93 C 361.518 136.85 362.971 130.573 364.558 123.1 C 366.145 115.633 367.255 109.653 367.888 105.16 Z" transform="matrix(1, 0, 0, 1, 0, 0)" style="fill: rgb(168, 168, 168); white-space: pre;"/>
  <path d="M 93.263 150.329 H 396.502 L 396.502 137.722 L 456.991 170.609 L 396.502 203.496 L 396.502 190.889 H 93.263 V 150.329 Z" style="fill: rgb(160, 158, 158);" transform="matrix(0.999993, 0.00377, -0.00377, 0.999993, -27.254301, 9.548644)"/>
</svg>