<?xml version="1.0" encoding="utf-8"?>
<svg viewBox="0 0 500 500" xmlns="http://www.w3.org/2000/svg">
  <path d="M 22.069 230.885 L 402.492 230.885 L 402.524 180.928 L 487.954 247.417 L 402.438 313.905 L 402.471 263.95 L 22.048 263.95 L 22.069 230.885 Z" style="fill: rgb(155, 154, 154);" transform="matrix(0.999994, 0.00343, -0.00343, 0.999994, 0.850139, -0.873198)"/>
  <ellipse style="stroke: rgb(0, 0, 0); stroke-width: 8px; fill: rgb(176, 176, 176);" cx="170.352" cy="335.576" rx="23.099" ry="25.253" transform="matrix(0.122932, 0.992415, -1.01419, -0.052857, 623.928772, -97.544357)"/>
  <ellipse style="stroke: rgb(0, 0, 0); stroke-width: 8px; fill: rgb(177, 177, 177);" cx="164.145" cy="300.611" rx="22.253" ry="22.626" transform="matrix(0.081846, -0.996645, 1.014428, -0.134703, -186.611374, 259.746613)"/>
  <ellipse style="stroke: rgb(0, 0, 0); stroke-width: 8px; fill: rgb(176, 176, 176);" cx="220.808" cy="112.032" rx="112.167" ry="89.203"/>
  <ellipse style="" cx="756.48" cy="881.204" rx="37.674" ry="21.267" transform="matrix(0.83111, -0.556108, 0.785561, 0.67758, -1153.816284, -67.319717)"/>
  <circle style="stroke: rgb(255, 255, 255); fill: none;" cx="186.81" cy="238.11" r="5.589" transform="matrix(1.769516, -0.329744, 0.472174, 1.462375, -264.977081, -185.149109)"/>
  <ellipse style="" cx="756.48" cy="881.204" rx="37.674" ry="21.267" transform="matrix(-0.83111, -0.556108, -0.785561, 0.67758, 1593.974121, -67.972031)"/>
  <circle style="stroke: rgb(255, 255, 255); fill: none;" cx="186.81" cy="238.11" r="5.589" transform="matrix(-1.769516, -0.329744, -0.472174, 1.462375, 705.134888, -185.801453)"/>
  <path style="fill: none; stroke: rgb(0, 0, 0); stroke-width: 5px;" d="M 222.02 147.449 C 251.639 147.449 260.218 152.177 252.773 172.196" transform="matrix(-0.813944, 0.580943, -0.580943, -0.813944, 525.770569, 151.259018)"/>
  <ellipse style="" cx="219.853" cy="149.945" rx="13.848" ry="7.474"/>
  <path style="fill: none; stroke: rgb(0, 0, 0); stroke-width: 6px;" d="M 185.893 172.763 C 215.511 172.763 224.09 168.034 216.645 148.014" transform="matrix(0.813944, 0.580943, -0.580943, 0.813944, 130.85965, -87.820854)"/>
  <path d="M 66.361 429.909 L 63.431 438.549 C 53.904 435.862 47.128 431.589 43.101 425.729 C 39.074 419.869 37.061 412.789 37.061 404.489 L 37.061 389.479 C 37.061 384.006 35.814 379.746 33.321 376.699 C 30.834 373.646 27.001 372.119 21.821 372.119 L 21.821 361.349 C 27.001 361.349 30.834 359.849 33.321 356.849 C 35.814 353.842 37.061 349.582 37.061 344.069 L 37.061 328.979 C 37.061 320.632 39.074 313.539 43.101 307.699 C 47.128 301.866 53.904 297.606 63.431 294.919 L 66.361 303.489 C 60.988 305.202 57.164 308.266 54.891 312.679 C 52.624 317.099 51.491 322.532 51.491 328.979 L 51.491 344.069 C 51.491 349.196 50.464 353.712 48.411 357.619 C 46.364 361.526 43.264 364.576 39.111 366.769 C 43.264 369.016 46.364 372.106 48.411 376.039 C 50.464 379.966 51.491 384.446 51.491 389.479 L 51.491 404.489 C 51.491 410.936 52.624 416.346 54.891 420.719 C 57.164 425.086 60.988 428.149 66.361 429.909 Z M 72.654 443.899 C 71.094 443.899 69.677 443.789 68.404 443.569 C 67.137 443.349 65.82 443.019 64.454 442.579 L 65.404 431.589 C 66.09 431.836 67.25 432.056 68.884 432.249 C 70.517 432.442 71.774 432.539 72.654 432.539 C 75.534 432.539 77.817 431.282 79.504 428.769 C 81.19 426.256 82.034 422.802 82.034 418.409 L 82.034 343.989 L 70.094 341.939 L 70.094 332.639 L 96.464 332.639 L 96.464 418.409 C 96.464 426.562 94.364 432.849 90.164 437.269 C 85.964 441.689 80.127 443.899 72.654 443.899 Z M 96.464 313.089 L 81.294 313.089 L 81.294 297.629 L 96.464 297.629 L 96.464 313.089 Z M 144.506 413.429 C 139.186 413.429 134.206 412.892 129.566 411.819 C 124.926 410.746 119.993 409.086 114.766 406.839 L 114.626 388.009 L 125.536 388.009 L 128.246 399.369 C 130.979 400.489 133.629 401.306 136.196 401.819 C 138.756 402.332 141.526 402.589 144.506 402.589 C 150.366 402.589 154.566 401.466 157.106 399.219 C 159.646 396.972 160.916 394.189 160.916 390.869 C 160.916 387.742 159.633 385.092 157.066 382.919 C 154.506 380.746 149.856 378.902 143.116 377.389 C 133.543 375.196 126.499 372.256 121.986 368.569 C 117.466 364.882 115.206 359.962 115.206 353.809 C 115.206 349.509 116.453 345.662 118.946 342.269 C 121.433 338.876 124.899 336.179 129.346 334.179 C 133.786 332.179 138.963 331.179 144.876 331.179 C 150.883 331.179 156.019 331.862 160.286 333.229 C 164.559 334.596 168.283 336.426 171.456 338.719 L 172.196 356.809 L 161.356 356.809 L 159.006 346.259 C 157.299 344.992 155.273 344.019 152.926 343.339 C 150.586 342.652 147.903 342.309 144.876 342.309 C 140.383 342.309 136.733 343.359 133.926 345.459 C 131.119 347.559 129.716 350.196 129.716 353.369 C 129.716 355.222 130.116 356.832 130.916 358.199 C 131.723 359.566 133.273 360.799 135.566 361.899 C 137.866 362.999 141.236 364.086 145.676 365.159 C 156.709 367.746 164.413 371.042 168.786 375.049 C 173.153 379.056 175.336 383.986 175.336 389.839 C 175.336 396.532 172.859 402.136 167.906 406.649 C 162.953 411.169 155.153 413.429 144.506 413.429 Z M 223.099 413.429 C 215.773 413.429 209.459 411.706 204.159 408.259 C 198.866 404.819 194.776 400.059 191.889 393.979 C 189.009 387.899 187.569 380.952 187.569 373.139 L 187.569 371.529 C 187.569 363.716 189.009 356.772 191.889 350.699 C 194.776 344.619 198.866 339.846 204.159 336.379 C 209.459 332.912 215.723 331.179 222.949 331.179 C 230.276 331.179 236.586 332.912 241.879 336.379 C 247.179 339.846 251.269 344.606 254.149 350.659 C 257.029 356.712 258.469 363.669 258.469 371.529 L 258.469 373.139 C 258.469 381.006 257.029 387.979 254.149 394.059 C 251.269 400.132 247.193 404.879 241.919 408.299 C 236.646 411.719 230.373 413.429 223.099 413.429 Z M 223.099 402.149 C 227.686 402.149 231.529 400.892 234.629 398.379 C 237.729 395.859 240.073 392.416 241.659 388.049 C 243.246 383.676 244.039 378.706 244.039 373.139 L 244.039 371.529 C 244.039 365.962 243.246 360.996 241.659 356.629 C 240.073 352.256 237.716 348.812 234.589 346.299 C 231.469 343.786 227.589 342.529 222.949 342.529 C 218.356 342.529 214.499 343.786 211.379 346.299 C 208.253 348.812 205.909 352.256 204.349 356.629 C 202.783 360.996 201.999 365.962 201.999 371.529 L 201.999 373.139 C 201.999 378.706 202.783 383.676 204.349 388.049 C 205.909 392.416 208.263 395.859 211.409 398.379 C 214.563 400.892 218.459 402.149 223.099 402.149 Z M 307.914 411.889 L 269.604 411.889 L 269.604 402.659 L 281.544 400.609 L 281.544 343.989 L 269.604 341.939 L 269.604 332.639 L 294.434 332.639 L 295.454 344.429 C 298.094 340.236 301.404 336.979 305.384 334.659 C 309.364 332.339 313.894 331.179 318.974 331.179 C 327.514 331.179 334.127 333.679 338.814 338.679 C 343.507 343.686 345.854 351.416 345.854 361.869 L 345.854 400.609 L 357.784 402.659 L 357.784 411.889 L 319.484 411.889 L 319.484 402.659 L 331.424 400.609 L 331.424 362.159 C 331.424 355.172 330.044 350.216 327.284 347.289 C 324.524 344.362 320.31 342.899 314.644 342.899 C 310.497 342.899 306.824 343.899 303.624 345.899 C 300.424 347.899 297.874 350.632 295.974 354.099 L 295.974 400.609 L 307.914 402.659 L 307.914 411.889 Z M 367.458 438.549 L 364.528 429.909 C 369.801 428.149 373.585 425.086 375.878 420.719 C 378.171 416.346 379.318 410.936 379.318 404.489 L 379.318 389.479 C 379.318 384.252 380.418 379.686 382.618 375.779 C 384.811 371.872 388.205 368.869 392.798 366.769 C 388.205 364.769 384.811 361.816 382.618 357.909 C 380.418 354.002 379.318 349.389 379.318 344.069 L 379.318 328.979 C 379.318 322.532 378.171 317.099 375.878 312.679 C 373.585 308.266 369.801 305.202 364.528 303.489 L 367.458 294.919 C 376.931 297.606 383.681 301.866 387.708 307.699 C 391.735 313.539 393.748 320.632 393.748 328.979 L 393.748 344.069 C 393.748 349.582 394.995 353.842 397.488 356.849 C 399.975 359.849 403.831 361.349 409.058 361.349 L 409.058 372.119 C 403.831 372.119 399.975 373.646 397.488 376.699 C 394.995 379.746 393.748 384.006 393.748 389.479 L 393.748 404.489 C 393.748 412.789 391.735 419.869 387.708 425.729 C 383.681 431.589 376.931 435.862 367.458 438.549 Z" style="white-space: pre; fill: rgb(245, 161, 40);"/>
</svg>