<?xml version="1.0" encoding="utf-8"?>
<svg viewBox="0 0 500 500" xmlns="http://www.w3.org/2000/svg">
  <path d="M 174.485 312.937 L 297.766 312.937 L 297.766 287.09 L 349.737 354.518 L 297.766 421.947 L 297.766 396.099 L 174.485 396.099 L 174.485 312.937 Z" style="fill: rgb(245, 161, 40);" transform="matrix(-0.009565, 0.999954, -0.999954, -0.009565, 619.120361, 95.810455)"/>
  <path d="M 194.009 243.386 L 181.849 243.386 L 181.849 191.456 C 181.849 184.916 180.359 180.033 177.379 176.806 C 174.406 173.586 169.746 171.976 163.399 171.976 C 154.946 171.976 148.779 174.269 144.899 178.856 C 141.019 183.449 139.079 190.969 139.079 201.416 L 139.079 243.386 L 126.919 243.386 L 126.919 129.426 L 139.079 129.426 L 139.079 163.916 C 139.079 168.069 138.882 171.513 138.489 174.246 L 139.229 174.246 C 141.616 170.386 145.019 167.346 149.439 165.126 C 153.859 162.906 158.902 161.796 164.569 161.796 C 174.382 161.796 181.742 164.126 186.649 168.786 C 191.556 173.453 194.009 180.863 194.009 191.016 L 194.009 243.386 Z M 244.914 234.816 C 247.061 234.816 249.134 234.656 251.134 234.336 C 253.141 234.023 254.728 233.696 255.894 233.356 L 255.894 242.656 C 254.581 243.289 252.641 243.813 250.074 244.226 C 247.514 244.639 245.208 244.846 243.154 244.846 C 227.628 244.846 219.864 236.669 219.864 220.316 L 219.864 172.556 L 208.364 172.556 L 208.364 166.706 L 219.864 161.646 L 224.994 144.506 L 232.024 144.506 L 232.024 163.116 L 255.314 163.116 L 255.314 172.556 L 232.024 172.556 L 232.024 219.806 C 232.024 224.639 233.171 228.349 235.464 230.936 C 237.758 233.523 240.908 234.816 244.914 234.816 Z M 297.869 234.816 C 300.015 234.816 302.089 234.656 304.089 234.336 C 306.095 234.023 307.682 233.696 308.849 233.356 L 308.849 242.656 C 307.535 243.289 305.595 243.813 303.029 244.226 C 300.469 244.639 298.162 244.846 296.109 244.846 C 280.582 244.846 272.819 236.669 272.819 220.316 L 272.819 172.556 L 261.319 172.556 L 261.319 166.706 L 272.819 161.646 L 277.949 144.506 L 284.979 144.506 L 284.979 163.116 L 308.269 163.116 L 308.269 172.556 L 284.979 172.556 L 284.979 219.806 C 284.979 224.639 286.125 228.349 288.419 230.936 C 290.712 233.523 293.862 234.816 297.869 234.816 Z M 362.243 244.846 C 357.023 244.846 352.253 243.883 347.933 241.956 C 343.606 240.029 339.979 237.063 337.053 233.056 L 336.173 233.056 C 336.759 237.743 337.053 242.186 337.053 246.386 L 337.053 279.426 L 324.893 279.426 L 324.893 163.116 L 334.783 163.116 L 336.463 174.096 L 337.053 174.096 C 340.179 169.703 343.816 166.529 347.963 164.576 C 352.116 162.623 356.876 161.646 362.243 161.646 C 372.889 161.646 381.106 165.283 386.893 172.556 C 392.679 179.836 395.573 190.043 395.573 203.176 C 395.573 216.363 392.629 226.606 386.743 233.906 C 380.863 241.199 372.696 244.846 362.243 244.846 Z M 360.493 171.976 C 352.286 171.976 346.353 174.246 342.693 178.786 C 339.033 183.326 337.153 190.553 337.053 200.466 L 337.053 203.176 C 337.053 214.456 338.933 222.526 342.693 227.386 C 346.453 232.239 352.483 234.666 360.783 234.666 C 367.716 234.666 373.149 231.859 377.083 226.246 C 381.009 220.633 382.973 212.893 382.973 203.026 C 382.973 193.019 381.009 185.343 377.083 179.996 C 373.149 174.649 367.619 171.976 360.493 171.976 Z" style="fill: rgb(132, 127, 127); white-space: pre;"/>
  <g transform="matrix(1, 0, 0, 1, -8.534099, -97.007957)">
    <g fill="#231F20">
      <path d="m211.3,156.2c-45.3,0-85.5,28.9-100,71.8-1.3,3.8-4.7,6.6-8.7,7-40.3,4.4-70.7,38.3-70.7,78.9 0,43.8 35.6,79.4 79.4,79.4h289.4c43.8,0 79.4-35.6 79.4-79.4 0-29.4-16.2-56.3-42.2-70.2-3.7-2-5.9-6-5.5-10.2 0.3-3.1 0.5-6.3 0.5-9.5 0-58.2-47.4-105.6-105.6-105.6-31,0-60.4,13.6-80.5,37.4-2.5,3-6.6,4.3-10.4,3.4-8.6-1.9-17-3-25.1-3zm189.4,258.1h-289.4c-55.3,0-100.3-45-100.3-100.3 0-49.1 35.2-90.4 82.8-98.7 19-48 65.4-79.9 117.5-79.9 7.8,0 15.7,0.8 23.8,2.4 23.9-25.5 57.2-40 92.2-40 69.7,0 126.4,56.7 126.4,126.4 0,1.6 0,3.1-0.1,4.7 29.4,18.2 47.4,50.2 47.4,85.1 0,55.3-45,100.3-100.3,100.3z" style="fill: rgb(135, 132, 133);"/>
      <path d="m211.3,156.2c-45.3,0-85.5,28.9-100,71.8-1.3,3.8-4.7,6.6-8.7,7-40.3,4.4-70.7,38.3-70.7,78.9 0,43.8 35.6,79.4 79.4,79.4h289.4c43.8,0 79.4-35.6 79.4-79.4 0-29.4-16.2-56.3-42.2-70.2-3.7-2-5.9-6-5.5-10.2 0.3-3.1 0.5-6.3 0.5-9.5 0-58.2-47.4-105.6-105.6-105.6-31,0-60.4,13.6-80.5,37.4-2.5,3-6.6,4.3-10.4,3.4-8.6-1.9-17-3-25.1-3zm189.4,258.1h-289.4c-55.3,0-100.3-45-100.3-100.3 0-49.1 35.2-90.4 82.8-98.7 19-48 65.4-79.9 117.5-79.9 7.8,0 15.7,0.8 23.8,2.4 23.9-25.5 57.2-40 92.2-40 69.7,0 126.4,56.7 126.4,126.4 0,1.6 0,3.1-0.1,4.7 29.4,18.2 47.4,50.2 47.4,85.1 0,55.3-45,100.3-100.3,100.3z" style="fill: rgb(135, 132, 133);"/>
    </g>
  </g>
</svg>