<?xml version="1.0" encoding="utf-8"?>
<svg viewBox="0 0 500 500" xmlns="http://www.w3.org/2000/svg">
  <ellipse style="stroke: rgb(0, 0, 0); stroke-width: 8px; fill: rgb(186, 186, 186);" cx="170.352" cy="335.576" rx="27.316" ry="33.106" transform="matrix(0.136523, 0.990637, -1.016011, -0.047595, 651.763123, -96.651878)"/>
  <ellipse style="stroke: rgb(0, 0, 0); stroke-width: 8px; fill: rgb(173, 173, 173);" cx="164.145" cy="300.611" rx="26.289" ry="29.691" transform="matrix(0.090986, -0.995852, 1.015236, -0.121172, -212.943848, 258.243225)"/>
  <ellipse style="stroke: rgb(0, 0, 0); stroke-width: 8px; fill: rgb(211, 211, 211);" cx="224.116" cy="124.899" rx="147.312" ry="105.301"/>
  <ellipse style="fill: rgb(216, 216, 216);"/>
  <ellipse style="" cx="756.48" cy="881.204" rx="47.985" ry="25.886" transform="matrix(0.856954, -0.515393, 0.847619, 0.657145, -1241.56311, -67.778458)"/>
  <circle style="stroke: rgb(255, 255, 255); fill: none;" cx="186.81" cy="238.11" r="5.589" transform="matrix(2.323943, -0.38925, 0.620116, 1.726275, -413.876709, -225.910904)"/>
  <ellipse style="" cx="756.48" cy="881.204" rx="47.985" ry="25.886" transform="matrix(-0.856954, -0.515393, -0.847619, 0.657145, 1687.87793, -68.548492)"/>
  <circle style="stroke: rgb(255, 255, 255); fill: none;" cx="186.81" cy="238.11" r="5.589" transform="matrix(-2.323943, -0.38925, -0.620116, 1.726275, 860.191467, -226.680954)"/>
  <path style="fill: rgb(216, 216, 216); stroke: rgb(0, 0, 0);" d="M 146.745 348.515"/>
  <path style="fill: none; stroke: rgb(0, 0, 0); stroke-width: 5px;" d="M 224.904 166.209 C 262.521 166.209 274 171.981 267.014 196.417" transform="matrix(-0.841684, 0.53997, -0.53997, -0.841684, 552.662598, 200.588867)"/>
  <ellipse style="" cx="222.861" cy="169.653" rx="18.187" ry="8.823"/>
  <path style="fill: none; stroke: rgb(0, 0, 0); stroke-width: 6px;" d="M 177.457 197.086 C 215.074 197.086 226.555 191.313 219.568 166.877" transform="matrix(0.841684, 0.53997, -0.53997, 0.841684, 129.845276, -78.902267)"/>
  <path d="M 53.831 433.685 L 69.203 433.685 L 70.472 435.803 C 69.012 441.968 66.901 449.129 64.141 457.288 C 61.381 465.453 58.51 473.048 55.526 480.071 L 44.962 480.071 C 46.484 473.662 48.161 465.744 49.99 456.316 C 51.82 446.897 53.101 439.353 53.831 433.685 Z M 151.902 332.685 C 138.332 332.685 127.619 337.63 119.761 347.521 C 111.911 357.411 107.986 370.948 107.986 388.129 C 107.986 405.808 111.772 419.467 119.346 429.105 C 126.919 438.751 137.713 443.574 151.73 443.574 C 160.348 443.574 170.178 441.881 181.219 438.49 L 181.219 452.254 C 172.654 455.761 162.093 457.515 149.539 457.515 C 131.347 457.515 117.312 451.48 107.432 439.411 C 97.553 427.334 92.613 410.178 92.613 387.94 C 92.613 374.022 94.989 361.827 99.74 351.356 C 104.499 340.885 111.372 332.815 120.361 327.147 C 129.341 321.479 139.912 318.644 152.076 318.644 C 165.022 318.644 176.341 321.23 186.029 326.402 L 179.951 339.901 C 170.601 335.091 161.251 332.685 151.902 332.685 Z M 277.85 419.732 C 277.85 431.616 273.906 440.884 266.018 447.536 C 258.137 454.188 247.438 457.515 233.921 457.515 C 219.283 457.515 208.019 455.455 200.13 451.333 L 200.13 436.182 C 205.205 438.519 210.726 440.366 216.692 441.72 C 222.659 443.073 228.571 443.751 234.429 443.751 C 244.001 443.751 251.209 441.767 256.053 437.796 C 260.897 433.819 263.319 428.288 263.319 421.207 C 263.319 416.524 262.458 412.689 260.735 409.702 C 259.021 406.716 256.149 403.962 252.12 401.439 C 248.1 398.907 241.976 396.044 233.748 392.848 C 222.262 388.349 214.055 383.017 209.126 376.852 C 204.206 370.695 201.745 362.659 201.745 352.744 C 201.745 342.332 205.32 334.048 212.471 327.891 C 219.621 321.726 229.083 318.644 240.852 318.644 C 253.124 318.644 264.415 321.108 274.725 326.037 L 270.238 339.712 C 260.052 335.028 250.141 332.685 240.507 332.685 C 232.912 332.685 226.972 334.473 222.689 338.046 C 218.407 341.621 216.265 346.579 216.265 352.92 C 216.265 357.604 217.054 361.44 218.629 364.426 C 220.206 367.419 222.87 370.161 226.621 372.65 C 230.366 375.148 236.095 377.907 243.805 380.926 C 256.761 385.973 265.671 391.393 270.538 397.188 C 275.413 402.974 277.85 410.488 277.85 419.732 Z M 345.426 407.444 L 373.635 320.587 L 389.089 320.587 L 344.573 455.673 L 330.387 455.673 L 286.124 320.587 L 301.325 320.587 L 329.707 407.999 C 332.974 418.041 335.566 427.801 337.48 437.28 C 339.51 427.305 342.158 417.36 345.426 407.444 Z M 403.277 433.685 L 418.65 433.685 L 419.919 435.803 C 418.457 441.968 416.347 449.129 413.587 457.288 C 410.827 465.453 407.955 473.048 404.972 480.071 L 394.408 480.071 C 395.93 473.662 397.606 465.744 399.436 456.316 C 401.267 446.897 402.546 439.353 403.277 433.685 Z" style="white-space: pre; fill: rgb(255, 161, 40);"/>
  <path d="M 56.068 252.2 L 359.307 252.2 L 359.307 239.593 L 419.796 272.48 L 359.307 305.367 L 359.307 292.76 L 56.068 292.76 L 56.068 252.2 Z" style="fill: rgb(160, 158, 158);" transform="matrix(0.999993, 0.00377, -0.00377, 0.999993, 1.02894, -0.895067)"/>
</svg>