<?xml version="1.0" encoding="utf-8"?>
<svg viewBox="0 0 500 500" xmlns="http://www.w3.org/2000/svg">
  <path d="M 22.281 200.634 L 402.704 200.634 L 402.736 150.677 L 488.166 217.166 L 402.65 283.655 L 402.683 233.699 L 22.26 233.699 L 22.281 200.634 Z" style="fill: rgb(155, 154, 154);" transform="matrix(0.999994, 0.00343, -0.00343, 0.999994, 0.746381, -0.874103)"/>
  <ellipse style="stroke: rgb(0, 0, 0); stroke-width: 8px; fill: rgb(245, 161, 40);" cx="170.352" cy="335.576" rx="23.099" ry="25.253" transform="matrix(0.122932, 0.992415, -1.01419, -0.052857, 635.647156, 149.559937)"/>
  <ellipse style="stroke: rgb(0, 0, 0); stroke-width: 8px; fill: rgb(245, 161, 40);" cx="164.145" cy="300.611" rx="22.253" ry="22.626" transform="matrix(0.081846, -0.996645, 1.014428, -0.134703, -174.892349, 506.850769)"/>
  <ellipse style="stroke: rgb(0, 0, 0); stroke-width: 8px; fill: rgb(245, 161, 40);" cx="232.527" cy="359.136" rx="112.167" ry="89.203"/>
  <ellipse style="" cx="756.48" cy="881.204" rx="37.674" ry="21.267" transform="matrix(0.83111, -0.556108, 0.785561, 0.67758, -1142.098633, 179.783936)"/>
  <circle style="stroke: rgb(255, 255, 255); fill: none;" cx="186.81" cy="238.11" r="5.589" transform="matrix(1.769516, -0.329744, 0.472174, 1.462375, -253.258331, 61.955151)"/>
  <ellipse style="" cx="756.48" cy="881.204" rx="37.674" ry="21.267" transform="matrix(-0.83111, -0.556108, -0.785561, 0.67758, 1605.69397, 179.131622)"/>
  <circle style="stroke: rgb(255, 255, 255); fill: none;" cx="186.81" cy="238.11" r="5.589" transform="matrix(-1.769516, -0.329744, -0.472174, 1.462375, 716.853638, 61.302807)"/>
  <path style="fill: none; stroke: rgb(0, 0, 0); stroke-width: 5px;" d="M 233.739 394.553 C 263.358 394.553 271.937 399.281 264.492 419.3" transform="matrix(-0.813944, 0.580943, -0.580943, -0.813944, 690.581543, 592.683777)"/>
  <ellipse style="" cx="231.572" cy="397.049" rx="13.848" ry="7.474"/>
  <path style="fill: none; stroke: rgb(0, 0, 0); stroke-width: 6px;" d="M 197.612 419.867 C 227.23 419.867 235.809 415.138 228.364 395.118" transform="matrix(0.813944, 0.580943, -0.580943, 0.813944, 276.593384, -48.65379)"/>
  <path d="M 71.195 167.372 L 68.265 176.012 C 58.738 173.325 51.962 169.052 47.935 163.192 C 43.908 157.332 41.895 150.252 41.895 141.952 L 41.895 126.942 C 41.895 121.469 40.648 117.209 38.155 114.162 C 35.668 111.109 31.835 109.582 26.655 109.582 L 26.655 98.812 C 31.835 98.812 35.668 97.312 38.155 94.312 C 40.648 91.305 41.895 87.045 41.895 81.532 L 41.895 66.442 C 41.895 58.095 43.908 51.002 47.935 45.162 C 51.962 39.329 58.738 35.069 68.265 32.382 L 71.195 40.952 C 65.822 42.665 61.998 45.729 59.725 50.142 C 57.458 54.562 56.325 59.995 56.325 66.442 L 56.325 81.532 C 56.325 86.659 55.298 91.175 53.245 95.082 C 51.198 98.989 48.098 102.039 43.945 104.232 C 48.098 106.479 51.198 109.569 53.245 113.502 C 55.298 117.429 56.325 121.909 56.325 126.942 L 56.325 141.952 C 56.325 148.399 57.458 153.809 59.725 158.182 C 61.998 162.549 65.822 165.612 71.195 167.372 ZM 77.488 181.362 C 75.928 181.362 74.511 181.252 73.238 181.032 C 71.971 180.812 70.654 180.482 69.288 180.042 L 70.238 169.052 C 70.924 169.299 72.084 169.519 73.718 169.712 C 75.351 169.905 76.608 170.002 77.488 170.002 C 80.368 170.002 82.651 168.745 84.338 166.232 C 86.024 163.719 86.868 160.265 86.868 155.872 L 86.868 81.452 L 74.928 79.402 L 74.928 70.102 L 101.298 70.102 L 101.298 155.872 C 101.298 164.025 99.198 170.312 94.998 174.732 C 90.798 179.152 84.961 181.362 77.488 181.362 Z M 101.298 50.552 L 86.128 50.552 L 86.128 35.092 L 101.298 35.092 L 101.298 50.552 ZM 149.34 150.892 C 144.02 150.892 139.04 150.355 134.4 149.282 C 129.76 148.209 124.827 146.549 119.6 144.302 L 119.46 125.472 L 130.37 125.472 L 133.08 136.832 C 135.813 137.952 138.463 138.769 141.03 139.282 C 143.59 139.795 146.36 140.052 149.34 140.052 C 155.2 140.052 159.4 138.929 161.94 136.682 C 164.48 134.435 165.75 131.652 165.75 128.332 C 165.75 125.205 164.467 122.555 161.9 120.382 C 159.34 118.209 154.69 116.365 147.95 114.852 C 138.377 112.659 131.333 109.719 126.82 106.032 C 122.3 102.345 120.04 97.425 120.04 91.272 C 120.04 86.972 121.287 83.125 123.78 79.732 C 126.267 76.339 129.733 73.642 134.18 71.642 C 138.62 69.642 143.797 68.642 149.71 68.642 C 155.717 68.642 160.853 69.325 165.12 70.692 C 169.393 72.059 173.117 73.889 176.29 76.182 L 177.03 94.272 L 166.19 94.272 L 163.84 83.722 C 162.133 82.455 160.107 81.482 157.76 80.802 C 155.42 80.115 152.737 79.772 149.71 79.772 C 145.217 79.772 141.567 80.822 138.76 82.922 C 135.953 85.022 134.55 87.659 134.55 90.832 C 134.55 92.685 134.95 94.295 135.75 95.662 C 136.557 97.029 138.107 98.262 140.4 99.362 C 142.7 100.462 146.07 101.549 150.51 102.622 C 161.543 105.209 169.247 108.505 173.62 112.512 C 177.987 116.519 180.17 121.449 180.17 127.302 C 180.17 133.995 177.693 139.599 172.74 144.112 C 167.787 148.632 159.987 150.892 149.34 150.892 ZM 227.933 150.892 C 220.607 150.892 214.293 149.169 208.993 145.722 C 203.7 142.282 199.61 137.522 196.723 131.442 C 193.843 125.362 192.403 118.415 192.403 110.602 L 192.403 108.992 C 192.403 101.179 193.843 94.235 196.723 88.162 C 199.61 82.082 203.7 77.309 208.993 73.842 C 214.293 70.375 220.557 68.642 227.783 68.642 C 235.11 68.642 241.42 70.375 246.713 73.842 C 252.013 77.309 256.103 82.069 258.983 88.122 C 261.863 94.175 263.303 101.132 263.303 108.992 L 263.303 110.602 C 263.303 118.469 261.863 125.442 258.983 131.522 C 256.103 137.595 252.027 142.342 246.753 145.762 C 241.48 149.182 235.207 150.892 227.933 150.892 Z M 227.933 139.612 C 232.52 139.612 236.363 138.355 239.463 135.842 C 242.563 133.322 244.907 129.879 246.493 125.512 C 248.08 121.139 248.873 116.169 248.873 110.602 L 248.873 108.992 C 248.873 103.425 248.08 98.459 246.493 94.092 C 244.907 89.719 242.55 86.275 239.423 83.762 C 236.303 81.249 232.423 79.992 227.783 79.992 C 223.19 79.992 219.333 81.249 216.213 83.762 C 213.087 86.275 210.743 89.719 209.183 94.092 C 207.617 98.459 206.833 103.425 206.833 108.992 L 206.833 110.602 C 206.833 116.169 207.617 121.139 209.183 125.512 C 210.743 129.879 213.097 133.322 216.243 135.842 C 219.397 138.355 223.293 139.612 227.933 139.612 ZM 312.748 149.352 L 274.438 149.352 L 274.438 140.122 L 286.378 138.072 L 286.378 81.452 L 274.438 79.402 L 274.438 70.102 L 299.268 70.102 L 300.288 81.892 C 302.928 77.699 306.238 74.442 310.218 72.122 C 314.198 69.802 318.728 68.642 323.808 68.642 C 332.348 68.642 338.961 71.142 343.648 76.142 C 348.341 81.149 350.688 88.879 350.688 99.332 L 350.688 138.072 L 362.618 140.122 L 362.618 149.352 L 324.318 149.352 L 324.318 140.122 L 336.258 138.072 L 336.258 99.622 C 336.258 92.635 334.878 87.679 332.118 84.752 C 329.358 81.825 325.144 80.362 319.478 80.362 C 315.331 80.362 311.658 81.362 308.458 83.362 C 305.258 85.362 302.708 88.095 300.808 91.562 L 300.808 138.072 L 312.748 140.122 L 312.748 149.352 ZM 372.292 176.012 L 369.362 167.372 C 374.635 165.612 378.419 162.549 380.712 158.182 C 383.005 153.809 384.152 148.399 384.152 141.952 L 384.152 126.942 C 384.152 121.715 385.252 117.149 387.452 113.242 C 389.645 109.335 393.039 106.332 397.632 104.232 C 393.039 102.232 389.645 99.279 387.452 95.372 C 385.252 91.465 384.152 86.852 384.152 81.532 L 384.152 66.442 C 384.152 59.995 383.005 54.562 380.712 50.142 C 378.419 45.729 374.635 42.665 369.362 40.952 L 372.292 32.382 C 381.765 35.069 388.515 39.329 392.542 45.162 C 396.569 51.002 398.582 58.095 398.582 66.442 L 398.582 81.532 C 398.582 87.045 399.829 91.305 402.322 94.312 C 404.809 97.312 408.665 98.812 413.892 98.812 L 413.892 109.582 C 408.665 109.582 404.809 111.109 402.322 114.162 C 399.829 117.209 398.582 121.469 398.582 126.942 L 398.582 141.952 C 398.582 150.252 396.569 157.332 392.542 163.192 C 388.515 169.052 381.765 173.325 372.292 176.012 Z" transform="matrix(1, 0, 0, 1, 0, 0)" style="fill: rgb(138, 138, 138); white-space: pre;"/>
</svg>