<?xml version="1.0" encoding="utf-8"?>
<svg viewBox="0 0 500 500" xmlns="http://www.w3.org/2000/svg">
  <path d="M 80.284 165.789 C 75.943 165.789 71.991 165.024 68.428 163.494 C 64.865 161.955 61.808 159.76 59.258 156.908 C 56.718 154.066 54.754 150.598 53.366 146.507 C 51.979 142.423 51.285 137.789 51.285 132.602 C 51.285 127.405 52.116 122.767 53.78 118.683 C 55.444 114.6 57.638 111.133 60.365 108.282 C 63.102 105.43 66.227 103.24 69.742 101.71 C 73.256 100.179 76.913 99.415 80.713 99.415 C 84.592 99.415 87.874 99.989 90.561 101.139 C 93.249 102.29 95.749 103.968 98.062 106.177 L 98.609 106.177 L 97.634 96.346 L 97.634 74.783 L 118.04 74.783 L 118.04 164.254 L 101.385 164.254 L 99.864 157.75 L 99.45 157.75 C 96.852 160.041 93.888 161.955 90.561 163.494 C 87.235 165.024 83.809 165.789 80.284 165.789 Z M 85.571 150.472 C 87.884 150.472 90.011 150.023 91.949 149.127 C 93.888 148.231 95.784 146.72 97.634 144.592 L 97.634 118.941 C 95.784 117.411 93.913 116.325 92.023 115.682 C 90.123 115.048 88.155 114.732 86.117 114.732 C 82.327 114.732 79.069 116.175 76.342 119.064 C 73.606 121.96 72.237 126.387 72.237 132.344 C 72.237 138.644 73.393 143.238 75.707 146.126 C 78.021 149.023 81.308 150.472 85.571 150.472 Z M 187.021 164.254 L 166.615 164.254 L 166.615 115.628 L 139.003 115.628 L 139.003 100.949 L 187.021 100.949 L 187.021 164.254 Z M 175.918 90.982 C 171.941 90.982 168.678 89.964 166.128 87.927 C 163.588 85.881 162.318 83.116 162.318 79.63 C 162.318 76.137 163.588 73.307 166.128 71.144 C 168.678 68.971 171.941 67.885 175.918 67.885 C 179.896 67.885 183.159 68.971 185.707 71.144 C 188.247 73.307 189.517 76.137 189.517 79.63 C 189.517 83.116 188.247 85.881 185.707 87.927 C 183.159 89.964 179.896 90.982 175.918 90.982 Z M 258.911 165.789 C 253.458 165.789 248.419 165.042 243.791 163.548 C 239.165 162.064 235.115 159.918 231.639 157.112 C 228.175 154.297 225.467 150.825 223.518 146.697 C 221.579 142.578 220.609 137.88 220.609 132.602 C 220.609 127.324 221.697 122.621 223.872 118.493 C 226.049 114.365 228.962 110.899 232.614 108.092 C 236.267 105.285 240.498 103.135 245.312 101.642 C 250.126 100.158 255.171 99.415 260.447 99.415 C 265.901 99.415 270.827 100.22 275.227 101.832 C 279.619 103.452 283.295 105.498 286.257 107.97 L 276.822 119.58 C 271.734 116.257 266.644 114.596 261.554 114.596 C 255.629 114.596 250.815 116.216 247.114 119.457 C 243.413 122.689 241.562 127.071 241.562 132.602 C 241.562 138.132 243.344 142.514 246.907 145.746 C 250.471 148.978 255.122 150.594 260.86 150.594 C 264.463 150.594 267.771 150 270.783 148.815 C 273.786 147.62 276.537 146.212 279.037 144.592 L 287.232 156.473 C 283.068 159.705 278.486 162.064 273.485 163.548 C 268.494 165.042 263.636 165.789 258.911 165.789 Z M 348.433 165.789 C 342.979 165.789 338.352 165.106 334.553 163.738 C 330.763 162.38 327.687 160.489 325.325 158.062 C 322.962 155.636 321.273 152.722 320.26 149.317 C 319.246 145.913 318.739 142.13 318.739 137.965 L 318.739 115.628 L 301.389 115.628 L 301.389 101.71 L 319.699 100.949 L 322.342 81.545 L 339.131 81.545 L 339.131 100.949 L 368.278 100.949 L 368.278 115.628 L 339.131 115.628 L 339.131 137.83 C 339.131 142.681 340.287 146.109 342.601 148.109 C 344.913 150.109 348.615 151.11 353.704 151.11 C 356.303 151.11 358.685 150.897 360.851 150.472 C 363.026 150.047 365.182 149.494 367.318 148.815 L 370.921 162.34 C 367.869 163.191 364.513 163.978 360.851 164.702 C 357.198 165.426 353.059 165.789 348.433 165.789 Z" style="white-space: pre; fill: rgb(170, 169, 168);"/>
  <path d="M 22.28 200.606 L 389.464 200.606 L 389.495 150.649 L 471.951 217.138 L 389.412 283.627 L 389.443 233.671 L 22.26 233.671 L 22.28 200.606 Z" style="fill: rgb(155, 154, 154);" transform="matrix(0.999994, 0.00343, -0.00343, 0.999994, 0.746237, -0.846295)"/>
  <ellipse style="stroke: rgb(0, 0, 0); stroke-width: 8px; fill: rgb(245, 161, 40);" cx="170.352" cy="335.576" rx="23.099" ry="25.253" transform="matrix(0.122932, 0.992415, -1.01419, -0.052857, 610.512329, 137.327087)"/>
  <ellipse style="stroke: rgb(0, 0, 0); stroke-width: 8px; fill: rgb(245, 161, 40);" cx="164.145" cy="300.611" rx="22.253" ry="22.626" transform="matrix(0.081846, -0.996645, 1.014428, -0.134703, -200.026962, 494.617889)"/>
  <ellipse style="stroke: rgb(0, 0, 0); stroke-width: 8px; fill: rgb(245, 161, 40);" cx="207.392" cy="346.903" rx="112.167" ry="89.203"/>
  <ellipse style="" cx="756.48" cy="881.204" rx="37.674" ry="21.267" transform="matrix(0.83111, -0.556108, 0.785561, 0.67758, -1167.233643, 167.550873)"/>
  <circle style="stroke: rgb(255, 255, 255); fill: none;" cx="186.81" cy="238.11" r="5.589" transform="matrix(1.769516, -0.329744, 0.472174, 1.462375, -278.393036, 49.722301)"/>
  <ellipse style="" cx="756.48" cy="881.204" rx="37.674" ry="21.267" transform="matrix(-0.83111, -0.556108, -0.785561, 0.67758, 1580.559692, 166.89856)"/>
  <circle style="stroke: rgb(255, 255, 255); fill: none;" cx="186.81" cy="238.11" r="5.589" transform="matrix(-1.769516, -0.329744, -0.472174, 1.462375, 691.718933, 49.069958)"/>
  <path style="fill: none; stroke: rgb(0, 0, 0); stroke-width: 5px;" d="M 208.604 382.32 C 238.223 382.32 246.802 387.048 239.357 407.067" transform="matrix(-0.813944, 0.580943, -0.580943, -0.813944, 637.881409, 585.095825)"/>
  <ellipse style="" cx="206.437" cy="384.816" rx="13.848" ry="7.474"/>
  <path style="fill: none; stroke: rgb(0, 0, 0); stroke-width: 6px;" d="M 172.477 407.634 C 202.095 407.634 210.674 402.905 203.229 382.885" transform="matrix(0.813944, 0.580943, -0.580943, 0.813944, 264.810211, -36.327812)"/>
</svg>