<?xml version="1.0" encoding="utf-8"?>
<svg viewBox="0 0 500 500" xmlns="http://www.w3.org/2000/svg">
  <rect x="75.22" y="93.931" width="227.283" height="283.808" style="fill: rgb(216, 216, 216); stroke-width: 11px; stroke: rgb(90, 90, 90);"/>
  <line style="stroke: rgb(86, 85, 85); stroke-width: 10px;" x1="75.22" y1="137.653" x2="302.716" y2="137.488"/>
  <line style="stroke: rgb(86, 85, 85); stroke-width: 10px;" x1="75.22" y1="217.52" x2="302.716" y2="217.355"/>
  <line style="stroke: rgb(86, 85, 85); stroke-width: 10px;" x1="75.006" y1="177.587" x2="302.502" y2="177.421"/>
  <line style="stroke: rgb(86, 85, 85); stroke-width: 10px;" x1="75.22" y1="257.453" x2="302.716" y2="257.288"/>
  <line style="stroke: rgb(86, 85, 85); stroke-width: 10px;" x1="75.22" y1="297.386" x2="302.716" y2="297.223"/>
  <line style="stroke: rgb(86, 85, 85); stroke-width: 10px;" x1="75.006" y1="337.32" x2="302.502" y2="337.156"/>
  <line style="stroke: rgb(86, 85, 85); stroke-width: 10px;" x1="127.822" y1="93.931" x2="128.041" y2="377.739"/>
  <line style="stroke: rgb(86, 85, 85); stroke-width: 10px;" x1="194.399" y1="93.931" x2="194.431" y2="377.739"/>
  <line style="stroke: rgb(86, 85, 85); stroke-width: 10px;" x1="249.081" y1="93.931" x2="249.703" y2="377.739"/>
  <rect x="302.502" y="93.931" width="107.455" height="283.808" style="fill: rgb(216, 216, 216); stroke-width: 11px; stroke: rgb(159, 157, 154);"/>
  <line style="stroke-width: 10px; stroke: rgb(159, 157, 154);" x1="336.854" y1="93.931" x2="337.073" y2="377.739"/>
  <line style="stroke-width: 10px; stroke: rgb(159, 157, 154);" x1="375.822" y1="93.931" x2="376.041" y2="377.739"/>
  <line style="stroke-width: 10px; stroke: rgb(159, 157, 154);" x1="302.716" y1="137.488" x2="409.957" y2="137.324"/>
  <line style="stroke-width: 10px; stroke: rgb(159, 157, 154);" x1="302.502" y1="177.421" x2="409.743" y2="177.258"/>
  <line style="stroke-width: 10px; stroke: rgb(159, 157, 154);" x1="302.716" y1="217.355" x2="409.957" y2="217.191"/>
  <line style="stroke-width: 10px; stroke: rgb(159, 157, 154);" x1="302.502" y1="257.288" x2="409.743" y2="257.124"/>
  <line style="stroke-width: 10px; stroke: rgb(159, 157, 154);" x1="302.502" y1="297.223" x2="409.743" y2="297.059"/>
  <line style="stroke-width: 10px; stroke: rgb(159, 157, 154);" x1="302.502" y1="337.156" x2="409.743" y2="336.992"/>
  <rect x="47.979" y="169.358" width="400" height="110.679" style="fill: rgb(216, 216, 216); stroke: rgb(245, 161, 40); stroke-width: 11px;"/>
  <path d="M 115.777 260.148 L 90.247 260.148 L 90.247 253.998 L 98.197 252.628 L 98.197 196.618 L 90.247 195.258 L 90.247 189.108 L 121.927 189.108 C 127.107 189.108 131.477 189.878 135.037 191.418 C 138.604 192.965 141.314 195.205 143.167 198.138 C 145.027 201.065 145.957 204.645 145.957 208.878 C 145.957 213.045 145.054 216.545 143.247 219.378 C 141.44 222.211 138.877 224.351 135.557 225.798 C 132.237 227.245 128.297 228.018 123.737 228.118 L 107.817 228.408 L 107.817 252.628 L 115.777 253.998 L 115.777 260.148 Z M 149.027 260.148 L 137.167 260.148 L 121.347 224.648 L 130.967 224.548 L 144.097 252.968 L 149.027 253.848 L 149.027 260.148 Z M 107.817 196.618 L 107.817 220.838 L 120.957 220.838 C 126.324 220.838 130.23 219.815 132.677 217.768 C 135.117 215.715 136.337 212.718 136.337 208.778 C 136.337 205.038 135.164 202.078 132.817 199.898 C 130.477 197.711 126.847 196.618 121.927 196.618 L 107.817 196.618 ZM 212.024 260.148 L 157.874 260.148 L 157.874 253.998 L 165.824 252.628 L 165.824 196.618 L 157.874 195.258 L 157.874 189.058 L 210.504 189.058 L 210.504 206.148 L 202.794 206.148 L 201.714 196.478 L 175.444 196.478 L 175.444 219.618 L 201.664 219.618 L 201.664 227.188 L 175.444 227.188 L 175.444 252.918 L 203.284 252.918 L 204.354 243.108 L 212.024 243.108 L 212.024 260.148 ZM 247.273 261.178 C 242.947 261.178 238.78 260.541 234.773 259.268 C 230.767 258.001 226.943 256.048 223.303 253.408 L 223.303 238.228 L 230.773 238.228 L 232.383 249.408 C 234.497 250.708 236.79 251.718 239.263 252.438 C 241.737 253.151 244.407 253.508 247.273 253.508 C 250.527 253.508 253.287 253.011 255.553 252.018 C 257.813 251.025 259.547 249.648 260.753 247.888 C 261.953 246.135 262.553 244.085 262.553 241.738 C 262.553 239.558 262.033 237.638 260.993 235.978 C 259.953 234.318 258.237 232.861 255.843 231.608 C 253.45 230.355 250.187 229.255 246.053 228.308 C 241.167 227.175 237.04 225.655 233.673 223.748 C 230.307 221.841 227.753 219.531 226.013 216.818 C 224.267 214.098 223.393 210.978 223.393 207.458 C 223.393 203.751 224.38 200.431 226.353 197.498 C 228.32 194.571 231.06 192.261 234.573 190.568 C 238.093 188.875 242.197 188.028 246.883 188.028 C 251.863 188.028 256.267 188.785 260.093 190.298 C 263.913 191.811 267.063 193.641 269.543 195.788 L 269.543 209.998 L 262.063 209.998 L 260.453 199.848 C 258.993 198.675 257.17 197.698 254.983 196.918 C 252.803 196.138 250.103 195.748 246.883 195.748 C 244.15 195.748 241.74 196.228 239.653 197.188 C 237.573 198.148 235.947 199.488 234.773 201.208 C 233.6 202.935 233.013 204.971 233.013 207.318 C 233.013 209.365 233.543 211.155 234.603 212.688 C 235.663 214.215 237.387 215.558 239.773 216.718 C 242.167 217.871 245.367 218.951 249.373 219.958 C 256.86 221.818 262.533 224.561 266.393 228.188 C 270.247 231.821 272.173 236.305 272.173 241.638 C 272.173 245.451 271.15 248.831 269.103 251.778 C 267.05 254.718 264.16 257.021 260.433 258.688 C 256.707 260.348 252.32 261.178 247.273 261.178 ZM 334.68 260.148 L 280.53 260.148 L 280.53 253.998 L 288.48 252.628 L 288.48 196.618 L 280.53 195.258 L 280.53 189.058 L 333.16 189.058 L 333.16 206.148 L 325.45 206.148 L 324.37 196.478 L 298.1 196.478 L 298.1 219.618 L 324.32 219.618 L 324.32 227.188 L 298.1 227.188 L 298.1 252.918 L 325.94 252.918 L 327.01 243.108 L 334.68 243.108 L 334.68 260.148 ZM 388.336 260.148 L 362.796 260.148 L 362.796 253.998 L 370.756 252.628 L 370.756 196.328 L 354.646 196.328 L 353.226 206.188 L 346.006 206.188 L 346.006 189.058 L 405.086 189.058 L 405.086 206.188 L 397.956 206.188 L 396.496 196.328 L 380.376 196.328 L 380.376 252.628 L 388.336 253.998 L 388.336 260.148 Z" transform="matrix(1, 0, 0, 1, 0, 0)" style="fill: rgb(51, 51, 51); white-space: pre;"/>
</svg>